<svg width="362" height="232" viewBox="0 0 362 232" fill="none" xmlns="http://www.w3.org/2000/svg">
<mask id="mask0_0_1" style="mask-type:alpha" maskUnits="userSpaceOnUse" x="182" y="3" width="180" height="220">
<rect x="182" y="3" width="180" height="220" fill="#C4C4C4"/>
</mask>
<g mask="url(#mask0_0_1)">
<mask id="mask1_0_1" style="mask-type:alpha" maskUnits="userSpaceOnUse" x="180" y="-126" width="167" height="213">
<path d="M180.8 46.8C196.4 70.8 225.2 86.1 259.7 86.1C285.8 86.1 306.2 78.9 321.5 64.2C336.8 49.5 344.3 31.5 344.3 9.9C344.3 -5.4 339.8 -18.6 330.5 -30.3C321.5 -42 309.8 -49.2 295.4 -51.3H295.1L347 -125.1H199.4V-73.5H259.1L214.1 -8.1C224.3 -10.2 236.6 -11.1 251 -11.1C275.6 -11.1 287.9 -3.60001 287.9 11.7C287.9 26.1 274.7 35.1 258.2 35.1C243.8 35.1 232.7 29.1 224.6 17.1L180.8 46.8Z" fill="#AFFF00"/>
</mask>
<g mask="url(#mask1_0_1)">
<path d="M41.1675 203.985C47.8402 196.066 55.125 187.936 62.2263 179.77C62.8997 178.996 64.7056 176.25 65.1035 176.25C65.5014 176.25 67.644 179.77 68.4092 179.77C69.1744 179.77 70.5824 177.553 71.4701 176.743C85.0297 161.151 99.0179 145.066 112.394 129.544C113.053 130.009 113.625 130.619 114.077 131.339C128.749 114.632 143.36 97.8435 157.909 80.9726C156.999 79.5934 155.974 78.3202 154.848 77.1713C139.993 93.8076 125.352 110.585 110.925 127.503C109.642 126.523 108.488 125.338 107.497 123.983C120.566 108.743 134.799 92.5875 148.42 76.9249C149.155 76.0802 150.594 73.8628 151.053 73.7572C151.512 73.6516 152.063 75.1299 153.012 75.4115C166.51 59.6785 180.192 44.0511 194.089 28.0014C194.731 27.2271 196.384 24.8337 196.721 24.8337C197.058 24.8337 199.261 28.3533 199.996 28.3533C200.731 28.3533 202.169 26.136 203.057 25.3264C216.647 9.69907 230.605 -6.35067 243.981 -21.8724C244.93 -21.5909 245.205 -20.0422 245.94 -20.2182C247.475 -21.7348 248.889 -23.4075 250.164 -25.2161C271.192 -49.4315 293.138 -74.562 314.075 -98.707C306.147 -108.457 297.668 -117.573 289.588 -127.181C288.29 -126.058 287.136 -124.731 286.16 -123.239C293.291 -115.214 300.331 -107.049 307.341 -98.883C285.915 -73.8581 264.029 -49.1148 242.481 -24.1251C241.165 -24.477 240.155 -26.4832 239.053 -27.6447C259.591 -51.3674 280.528 -74.8436 300.913 -98.707C296.169 -104.127 290.353 -110.709 285.149 -116.728C284.35 -117.531 283.594 -118.389 282.884 -119.297C282.884 -119.966 284.69 -120.775 284.476 -121.409L258.428 -151.502H232.074L271.314 -106.45C272.049 -106.45 272.355 -108.175 273.151 -107.964C273.947 -107.753 274.62 -106.274 275.14 -105.676C277.099 -103.423 279.395 -100.572 281.048 -98.883C263.968 -78.6801 246.399 -59.0402 229.197 -39.0485C227.95 -40.125 226.846 -41.4056 225.922 -42.8497C242.175 -61.5392 258.581 -80.0527 274.62 -98.9886C272.906 -100.713 271.559 -102.719 269.753 -104.444C269.447 -103.599 266.417 -101.558 266.447 -100.643C266.478 -99.7277 267.978 -99.8333 268.039 -98.6718C252.837 -81.355 237.696 -63.9561 222.616 -46.475C223.014 -45.7007 223.81 -45.4191 224.085 -44.504C209.485 -27.7503 194.762 -11.1374 180.376 5.86261C181.355 7.30568 182.702 8.256 183.437 9.80466C169.928 25.479 156.277 41.2002 142.482 56.9683C141.503 57.9512 140.582 59.0096 139.727 60.1361C139.727 60.8752 141.319 61.5087 141.166 62.2831C141.013 63.0574 139.054 64.5708 138.411 65.31C124.729 81.0429 110.863 96.9871 97.6099 112.368C96.3627 111.292 95.2593 110.011 94.3348 108.567C108.935 91.8131 123.627 75.2003 138.013 58.2002C137.024 56.9073 135.927 55.7285 134.738 54.6806C120.23 71.575 105.538 88.1879 91.029 105.082C91.427 105.857 92.2228 106.138 92.4983 107.053C77.8979 123.807 63.1751 140.42 48.789 157.42C49.7685 158.863 51.1153 159.813 51.8499 161.362C39.382 175.441 27.0058 189.672 14.7216 204.056L59.6245 255.76H85.948C71.0722 238.466 56.1453 221.208 41.1675 203.985ZM230.666 -36.7607C231.554 -36.7607 231.829 -34.9305 232.502 -34.9657L234.217 -36.9367C251.939 -57.5268 270.488 -78.6801 287.782 -98.707C283.894 -103.036 280.068 -107.401 276.334 -111.871C277.497 -112.997 278.446 -114.37 279.609 -115.39C284.384 -109.583 289.557 -104.233 294.21 -98.2847C274.712 -76.1811 255 -53.9015 235.778 -31.2348C236.176 -30.4253 237.094 -30.2141 237.247 -29.123C222.493 -12.5805 208.169 4.45474 193.415 20.962C191.242 18.4631 188.946 16.1401 186.957 13.3947C201.588 -3.28856 216.157 -20.0305 230.666 -36.8311V-36.7607ZM99.0485 114.585C99.8444 114.937 100.181 115.888 100.885 116.381C114.016 101.07 128.433 84.7034 141.931 69.1816C142.635 68.3721 144.288 65.9787 144.686 66.0139C145.543 66.0139 147.135 69.5336 147.747 69.78C133.147 86.5336 118.424 103.182 104.038 120.182C104.405 121.026 105.323 121.202 105.507 122.294C90.9066 138.73 76.6123 155.766 61.8283 172.308C59.6551 169.809 57.3289 167.486 55.3699 164.741C70.1029 148.034 84.6726 131.28 99.0791 114.48L99.0485 114.585Z" fill="#AFFF00"/>
<path d="M138.688 159.884C139.636 160.165 139.943 161.714 140.677 161.538C141.664 160.564 142.585 159.505 143.432 158.37C156.9 142.884 170.98 126.482 184.233 111.312C183.324 109.933 182.298 108.66 181.172 107.511C166.358 124.054 151.91 140.948 137.341 157.737C136.138 156.709 135.039 155.528 134.066 154.217C147.136 138.942 161.369 122.822 174.989 107.159C175.724 106.314 177.163 104.097 177.622 103.991C178.081 103.886 178.632 105.364 179.581 105.646C192.865 90.159 206.914 74.2149 220.627 58.4467C221.3 57.6724 222.923 55.279 223.259 55.279C223.596 55.279 225.83 58.7987 226.565 58.7987C227.3 58.7987 230.177 54.9622 231.034 53.9415C275.233 3.15252 319.799 -48.1292 363.692 -98.883C361.794 -100.819 360.172 -103.001 358.274 -104.937C358.55 -106.028 359.897 -106.345 359.744 -107.189C358.894 -108.345 357.963 -109.416 356.958 -110.392C345.204 -123.908 332.808 -137.987 321.146 -151.502H314.381C328.461 -135.488 342.358 -119.262 356.438 -103.283C355.528 -101.903 354.503 -100.63 353.377 -99.4813C340.093 -114.546 326.074 -130.877 312.453 -146.539C311.718 -147.384 309.79 -149.038 309.698 -149.566C309.606 -150.094 310.586 -150.693 311.014 -151.502H284.966L297.975 -136.544C298.71 -136.79 299.046 -138.409 299.689 -138.374C299.689 -138.374 301.25 -136.544 301.801 -135.945C312.545 -123.591 323.84 -110.604 334.032 -98.5662C307.913 -68.6724 281.855 -38.7199 255.858 -8.7088C254.604 -9.76329 253.5 -11.0335 252.582 -12.4749C277.396 -41.1485 302.281 -69.8926 327.237 -98.707C316.891 -110.721 306.495 -122.688 296.047 -134.608C294.855 -133.408 293.759 -132.089 292.772 -130.666C301.954 -120.107 311.474 -109.548 320.534 -98.5662C296.639 -71.2066 272.754 -43.7765 248.879 -16.2761C249.154 -15.2906 250.073 -15.1146 250.348 -14.1291C237.003 1.1463 222.8 17.3016 209.271 32.929C208.567 33.7385 206.639 35.7448 206.639 36.2375C206.639 36.7303 209.7 39.194 209.7 40.0388C209.7 40.8835 207.618 42.2914 206.945 43.0657C193.049 59.045 179.397 74.7428 165.899 90.4054C166.297 91.3557 167.49 91.7429 167.337 92.5172C167.184 93.2915 165.317 94.6994 164.582 95.5441L123.934 142.602C122.681 141.548 121.576 140.277 120.659 138.836C135.259 122.082 149.952 105.47 164.338 88.4344C163.342 87.1484 162.245 85.9703 161.062 84.9147L119.986 131.867C119.021 132.869 118.102 133.926 117.231 135.035C117.231 135.844 118.731 136.161 118.823 137.182C105.477 152.457 91.2747 168.648 77.7456 184.24C77.0416 185.05 75.1133 187.056 75.1133 187.549C75.1133 188.041 78.1742 190.505 78.1742 191.35C78.1742 192.195 75.9397 193.778 75.4194 194.377C72.5728 197.615 69.6956 201.064 67.2775 203.915C82.2145 221.161 97.1821 238.396 112.18 255.619H145.299L100.396 203.985C112.884 189.097 125.924 174.702 138.688 159.884ZM257.143 -6.56179C258.092 -6.28022 258.337 -4.73155 259.102 -4.90754C259.985 -5.81473 260.823 -6.77829 261.612 -7.79367C287.936 -38.0629 314.81 -68.9305 340.552 -98.883C327.921 -113.267 315.33 -127.744 302.781 -142.316C303.974 -143.442 304.893 -144.815 306.086 -145.836C319.616 -129.927 333.634 -114.51 347.01 -98.4606C318.707 -66.0326 290.456 -33.5577 262.255 -1.0359C262.53 -0.0503864 263.449 0.125592 263.724 1.07591C249.032 17.7592 234.585 34.6889 219.892 51.3369C217.719 48.838 215.393 46.515 213.434 43.7696C227.963 27.0159 242.482 10.2388 256.99 -6.56179H257.143ZM88.1526 202.542C85.9794 200.043 83.6531 197.72 81.6942 194.975C96.3251 178.292 110.885 161.55 125.373 144.749C126.199 145.101 126.505 146.052 127.24 146.544C140.371 131.234 154.788 114.867 168.286 99.3454C168.99 98.5358 170.643 96.1425 171.041 96.1777C171.898 96.1777 173.49 99.6973 174.102 99.9437C160.787 115.043 146.554 131.621 133.178 147.002C132.474 147.811 130.454 149.677 130.423 150.17C130.393 150.662 131.739 151.261 131.862 152.317C117.261 168.965 102.845 185.894 88.1526 202.542Z" fill="#AFFF00"/>
<path d="M-32.7218 243.863C-32.9054 242.983 -31.5586 242.702 -31.2832 241.576C-42.2411 229.069 -53.1582 216.516 -64.0345 203.915C-39.5475 175.511 -14.7851 147.107 10.161 118.422C10.7732 117.718 12.3955 115.677 12.5485 115.677C13.2525 115.677 15.089 119.196 15.8236 119.196C16.5582 119.196 18.0275 116.979 18.7315 116.169C32.1993 100.718 46.5242 84.1403 59.6553 68.9705C60.6042 69.2873 60.8796 70.836 61.6142 70.6248C62.6271 69.6718 63.5597 68.6112 64.3996 67.4571L105.017 20.5045C104.114 19.0017 102.959 17.7214 101.62 16.7385C87.1725 33.5626 72.4803 50.1402 58.0636 66.9643C56.8643 65.9182 55.7571 64.7393 54.7579 63.4446C67.9502 48.0636 82.1527 31.9435 95.8348 16.2809C96.5694 15.4362 98.008 13.2188 98.4671 13.078C98.9262 12.9372 99.5078 14.4507 100.457 14.7675C113.527 -0.507939 128.004 -16.9097 141.503 -32.4666C142.313 -33.5938 143.193 -34.6524 144.135 -35.6344C144.992 -35.6344 146.645 -32.1147 147.41 -31.8331C162.001 -48.5868 176.591 -65.3874 191.181 -82.2349C191.793 -82.2349 192.436 -80.4047 193.17 -80.5807C193.862 -81.2857 194.516 -82.038 195.129 -82.8332C199.537 -87.9016 204.618 -93.9906 208.811 -98.5662C193.609 -116.258 178.305 -133.857 162.898 -151.361H156.287L202.2 -98.5662C198.282 -93.4979 193.844 -88.9927 189.957 -84.0299C188.764 -85.0855 187.658 -86.2636 186.651 -87.5496C189.712 -91.3157 193.017 -94.589 195.833 -98.4606L149.829 -151.502H143.248C158.552 -133.927 173.856 -116.329 189.161 -98.707C187.263 -96.3488 185.273 -94.0962 183.253 -91.8788C183.529 -90.9989 184.294 -90.6821 184.692 -89.9078C170.102 -73.0603 155.461 -56.2831 140.768 -39.5764C138.565 -41.8994 136.575 -44.5039 134.341 -46.8269C148.696 -63.8974 163.572 -80.4047 178.019 -97.3695C179.029 -97.3695 178.999 -95.5745 179.733 -95.5393C180.468 -95.5041 182.029 -98.4254 182.488 -99.059L136.667 -151.502H120.322L166.235 -98.707C153.685 -83.678 140.615 -69.2473 127.943 -54.359C128.127 -53.3735 131.004 -51.5433 131.004 -50.593C131.004 -50.2058 128.892 -48.3052 128.249 -47.5661C114.598 -31.8683 100.365 -15.4314 87.1725 -0.191168C87.601 0.618359 88.4581 0.970321 88.7641 1.92063C74.072 18.4983 59.7471 35.5336 44.9325 52.0057C43.8141 50.8479 42.7896 49.5756 41.8716 48.2044C56.472 31.4508 71.1948 14.8379 85.5809 -2.16219C84.5896 -3.46574 83.4815 -4.64549 82.2751 -5.68187C67.685 11.0014 53.1254 27.7434 38.5965 44.544C38.5965 45.5295 40.1575 45.811 39.9127 46.7965C-5.63307 98.923 -51.087 151.19 -96.5409 203.387V204.443C-94.9492 206.379 -93.2964 208.279 -91.6129 210.11C-90.7252 209.898 -89.1336 206.59 -88.3072 206.59C-87.3572 207.563 -86.4769 208.622 -85.6748 209.758C-72.5131 225.104 -58.4943 240.801 -45.5774 255.619H-43.3736C-43.1588 255.384 -42.9103 255.194 -42.639 255.056L-42.1492 255.619H-35.7826C-36.1193 255.232 -36.4866 254.845 -36.8233 254.422C-37.8032 253.44 -38.7236 252.381 -39.5781 251.255C-39.5781 250.269 -36.5172 248.404 -36.303 247.489L-29.2018 255.619H-22.6209C-25.039 252.874 -27.4571 250.093 -29.8445 247.313C-30.8764 246.246 -31.8381 245.093 -32.7218 243.863V243.863ZM46.4935 53.8007C47.3812 53.8007 47.6567 55.6661 48.3301 55.6309C49.2868 54.6534 50.1676 53.5817 50.9624 52.428C64.6445 36.6951 78.8775 20.4341 92.1617 5.22913C93.1106 6.6722 94.4574 7.62252 95.2226 9.17118C80.612 25.9483 66.0627 42.7841 51.5746 59.6786C51.9419 60.4529 52.7377 60.7697 53.0132 61.6496C38.321 78.2977 23.8737 95.2273 9.18154 111.875C6.97771 109.552 4.95754 106.948 2.75372 104.625C17.1092 87.4136 31.9544 70.9064 46.4323 53.9415L46.4935 53.8007Z" fill="#AFFF00"/>
<path d="M-6.45931 213.594C-6.64296 212.714 -5.29618 212.433 -5.0207 211.306C-7.22453 208.913 -9.36713 206.449 -11.4791 203.915C4.00887 185.789 19.8336 167.909 35.7807 149.571C36.5153 148.726 38.3824 146.052 38.8416 146.052C39.3007 146.052 41.3821 149.571 42.1167 149.571C42.8513 149.571 44.2899 147.389 45.1776 146.544C58.7678 130.917 72.7254 114.691 86.1014 99.3454C87.0503 99.6269 87.3257 101.211 88.0603 101C89.0582 100.028 89.9894 98.9685 90.8457 97.8319L131.433 50.7738C130.532 49.3865 129.506 48.1124 128.372 46.9725C113.588 63.515 99.1407 80.4447 84.5404 97.2335C83.3644 96.1685 82.2688 94.9911 81.2652 93.7139C94.3657 78.4385 108.568 62.2831 122.189 46.6206C122.924 45.7758 124.362 43.5936 124.821 43.4529C125.281 43.3121 125.862 44.8255 126.78 45.1423C139.881 29.8317 154.328 13.4652 167.857 -2.0918C168.659 -3.22726 169.54 -4.28659 170.49 -5.25951C171.347 -5.25951 172.999 -1.73984 173.765 -1.49346C188.416 -18.2002 203.027 -34.9891 217.596 -51.8601C218.515 -51.5785 218.821 -50.0298 219.555 -50.2058C220.509 -51.1233 221.39 -52.1363 222.188 -53.2327C235.105 -68.297 248.878 -84.0651 261.459 -98.707C246.154 -116.235 230.85 -133.775 215.546 -151.326H209.087L255 -98.531C242.328 -83.3612 229.136 -68.7897 216.341 -53.7255C215.143 -54.7728 214.036 -55.9516 213.036 -57.2452C224.687 -71.23 236.441 -85.0506 248.297 -98.707C233.095 -116.399 217.79 -133.998 202.384 -151.502H195.772C211.016 -133.974 226.32 -116.376 241.685 -98.707C231.156 -86.1417 220.259 -74.0692 209.577 -61.6448C209.73 -60.5537 210.648 -60.3425 211.015 -59.4978C196.385 -42.7441 181.743 -26.0139 167.092 -9.30714C164.888 -11.6301 162.868 -14.2347 160.664 -16.5577C175.02 -33.6633 189.865 -50.1354 204.343 -67.0299C205.23 -66.7483 205.628 -65.1997 206.302 -65.3756C207.598 -66.6524 208.787 -68.0665 209.852 -69.5993C218.178 -79.1376 227.361 -89.3799 235.135 -98.8126L189.314 -151.502H182.733L228.646 -98.707C220.29 -88.6055 211.566 -78.8912 202.996 -69.0361C201.804 -70.0917 200.697 -71.2698 199.69 -72.5558C207.067 -81.355 214.811 -89.6966 222.065 -98.6014L176.152 -151.502H169.449C184.733 -133.974 200.037 -116.376 215.362 -98.707C209.24 -91.1045 202.629 -84.1003 196.415 -76.6034C196.66 -75.5827 197.731 -75.5123 197.854 -74.3508C183.162 -57.7379 168.541 -41.0429 153.991 -24.2658C153.991 -23.2803 157.052 -21.45 157.052 -20.4997C156.198 -19.4161 155.278 -18.4045 154.298 -17.4728C140.646 -1.77502 126.413 14.6619 113.221 29.9021C113.649 30.7116 114.476 31.0636 114.812 32.0139C100.09 48.5916 85.7953 65.6268 70.9807 82.0989C69.8548 80.95 68.8296 79.6768 67.9198 78.2977C82.5202 61.544 97.243 44.9311 111.598 27.9311C110.625 26.6201 109.527 25.4394 108.323 24.4114C93.6924 41.0947 79.1328 57.8366 64.6447 74.6372C64.8896 75.6579 65.9303 75.7635 66.0833 76.8898C51.5136 93.5731 36.9438 110.292 22.3741 127.045C22.5577 128.101 25.435 129.826 25.435 130.811C25.435 130.811 24.027 132.43 23.4454 133.099C3.15182 156.646 -18.06 180.72 -37.925 203.985C-31.2524 211.412 -24.8245 219.085 -18.1824 226.511C-17.4784 226.019 -17.1417 225.104 -16.3459 224.716L10.4061 255.549H17.0482L-11.2955 222.957C-11.8464 222.323 -13.132 221.126 -13.132 220.985C-13.132 220.845 -11.1424 218.522 -10.7751 218.135C-10.4078 217.747 -10.1936 217.219 -9.97931 217.219C-8.60398 218.49 -7.33344 219.904 -6.18383 221.443L23.5372 255.619H30.2405C18.65 242.315 7.06974 229.01 -4.50035 215.706C-5.17374 214.967 -6.4287 213.805 -6.45931 213.594ZM72.756 84.3163C73.5824 84.6683 73.8885 85.6538 74.5925 86.1466C87.7237 70.8008 102.14 54.4694 115.639 38.9125C116.343 38.1381 118.026 35.7096 118.424 35.7448C118.822 35.78 120.842 39.2644 121.485 39.5108C108.17 54.6102 93.9372 71.1879 80.5612 86.5689C79.8572 87.4136 77.8064 89.2439 77.7758 89.7718C77.7452 90.2998 79.092 90.8277 79.2451 91.8836C64.5529 108.532 50.1056 125.461 35.4134 142.109C33.1562 139.719 31.0106 137.193 28.9856 134.542C43.6573 117.788 58.2475 101.047 72.756 84.3163Z" fill="#AFFF00"/>
<path d="M460.813 -123.098C462.009 -124.137 463.106 -125.316 464.088 -126.618C472.25 -117.42 480.28 -108.187 488.177 -98.9182C457.568 -63.5805 426.909 -28.3133 396.198 6.88349V7.51703C345.755 65.4041 295.352 123.362 244.991 181.389C245.266 182.023 246.583 182.797 246.46 183.501C245.771 184.419 245.024 185.278 244.226 186.071C239.022 192.019 233.176 198.53 228.554 204.091C243.491 221.338 258.469 238.572 273.488 255.795H280.191C265.193 238.619 250.317 221.338 235.257 204.232C240.002 198.319 245.052 192.793 250.011 187.126C250.99 188.464 252.184 189.555 253.072 190.928C249.184 195.222 245.389 199.621 241.624 204.091C256.561 221.361 271.549 238.596 286.588 255.795H293.261C278.263 238.655 263.387 221.338 248.327 204.232C249.797 202.226 252.215 199.48 254.265 197.193C254.755 196.63 255.796 195.01 256.224 194.905C256.653 194.799 257.418 196.594 258.214 196.594C304.168 143.588 350.173 90.6754 396.228 37.8567V37.2231C435.714 -8.06343 475.148 -53.4087 514.531 -98.8126C502.288 -113.208 489.646 -127.357 477.311 -141.788C478.429 -142.933 479.454 -144.194 480.372 -145.554L475.627 -151.502H462.374C466.231 -147.067 470.097 -142.644 473.974 -138.233C472.077 -135.488 469.659 -133.305 467.639 -130.666C461.517 -137.529 455.395 -144.498 449.273 -151.502H435.989C444.284 -142.034 452.518 -132.531 460.813 -123.098Z" fill="#AFFF00"/>
<path d="M153.012 203.986C156.899 199.305 161.001 194.87 164.858 190.189C165.806 190.505 166.112 192.054 166.847 191.878C167.833 190.891 168.754 189.82 169.602 188.675C183.07 173.224 197.15 156.998 210.403 141.617C209.485 140.257 208.461 138.996 207.342 137.851C192.528 154.393 178.08 171.288 163.511 188.077C162.311 187.031 161.204 185.852 160.205 184.557C173.336 169.247 187.753 152.88 201.282 137.358C202.077 136.205 202.957 135.133 203.914 134.155C204.588 134.155 204.863 135.915 205.751 135.986C219.004 120.499 233.084 104.555 246.797 88.7866C247.6 87.6415 248.48 86.5706 249.429 85.5837C250.133 85.5837 251.97 89.1034 252.735 89.1034C253.5 89.1034 256.347 85.0558 257.326 83.9295L396.412 -75.8289V-76.4624C402.993 -83.9945 409.666 -91.3859 416.032 -99.1644C409.36 -106.591 402.932 -114.299 396.29 -121.726C392.28 -126.125 388.485 -130.806 384.444 -135.206C384.689 -136.227 385.76 -136.297 385.883 -137.459L373.639 -151.537H366.906C372.109 -145.507 377.343 -139.512 382.608 -133.552C381.69 -132.191 380.665 -130.931 379.547 -129.786C373.425 -136.825 366.967 -144.146 360.539 -151.537H353.836C361.365 -142.914 368.864 -134.326 375.996 -125.984C376.67 -125.984 377.129 -127.287 377.833 -127.674C384.138 -120.634 390.076 -113.349 396.504 -106.345C398.677 -103.986 400.789 -101.558 402.84 -99.094C400.728 -96.5598 398.586 -94.096 396.382 -91.6674V-91.0339C346.245 -33.6279 296.383 24.0245 246.399 81.4305C244.195 79.0019 242.053 76.5381 239.941 74.004C289.71 16.422 339.623 -41.1483 389.678 -98.7068C383.557 -106.098 377.435 -113.067 371.13 -120.212C371.344 -121.198 372.691 -121.62 372.568 -122.465C364.059 -132.132 355.591 -141.858 347.163 -151.643H340.398L369.293 -118.558C368.376 -117.106 367.272 -115.824 366.018 -114.757C355.407 -126.982 344.745 -139.23 334.032 -151.502H327.328C339.143 -137.951 350.897 -124.295 362.773 -110.85C363.63 -111.131 363.783 -112.187 364.61 -112.504C368.467 -107.752 372.721 -103.458 376.455 -98.4252C330.389 -45.63 283.742 8.18592 237.492 61.3683C236.574 62.4242 232.992 65.7679 233.023 66.6478C233.054 67.5277 236.084 69.6044 236.084 70.4139C236.084 71.2234 234.003 72.7017 233.329 73.4408C219.586 89.2442 205.781 105.4 192.283 120.816C192.681 121.731 193.875 122.153 193.722 122.928C193.568 123.702 191.701 125.11 190.967 125.954C177.346 141.582 163.419 157.878 150.165 173.013C148.912 171.958 147.807 170.688 146.89 169.247C161.552 152.352 176.275 135.704 190.722 118.704C189.723 117.409 188.615 116.23 187.416 115.184C174.163 130.389 159.868 146.861 146.37 162.242C145.398 163.234 144.478 164.292 143.615 165.41C143.615 166.184 145.115 166.536 145.176 167.522C134.586 179.7 123.75 191.737 113.466 204.162C128.464 221.338 143.431 238.526 158.368 255.725H171.683L126.688 203.986C134.83 194.06 143.462 184.733 151.696 174.913C152.553 174.913 152.89 176.708 153.41 176.743C153.93 176.779 155.491 174.35 156.165 173.576C169.724 158.019 184.08 141.899 197.242 126.342C197.242 127.186 200.486 129.017 200.517 129.861C200.517 130.284 198.435 132.255 197.762 133.029C184.294 148.516 170.214 165.023 156.838 180.087C156.838 180.897 157.94 181.389 158.277 182.199C152.155 189.52 145.696 196.278 139.728 203.845L184.6 255.62H197.915C182.917 238.42 167.949 221.209 153.012 203.986Z" fill="#AFFF00"/>
<path d="M182.641 203.986C196.139 187.971 209.974 172.309 223.687 156.611C224.667 157.984 225.86 159.039 226.748 160.412C214.137 174.878 201.373 189.238 188.977 203.986L233.941 255.549H240.614C225.717 238.397 210.77 221.209 195.772 203.986C205.903 192.019 217.198 179.066 227.88 166.748C228.493 166.079 229.778 164.389 229.993 164.319C230.727 164.319 231.064 165.727 231.982 166.008C286.71 102.936 341.49 39.9333 396.32 -22.9986V-23.6321C418.236 -48.7978 440.305 -73.858 462.006 -99.2701C459.619 -101.804 456.497 -105.606 453.834 -108.668C453.252 -109.336 451.049 -111.131 451.079 -111.835C451.11 -112.539 452.548 -113.56 452.64 -113.666C453.314 -114.44 453.895 -114.757 454.232 -115.601C443.845 -127.592 433.438 -139.559 423.011 -151.502H409.696C422.368 -137.001 435.02 -122.441 447.651 -107.823C445.57 -105.289 443.396 -102.825 441.193 -100.432C426.409 -117.08 412.053 -133.904 397.392 -150.657C397.402 -150.831 397.449 -150.999 397.529 -151.146C397.609 -151.293 397.72 -151.416 397.851 -151.502L393.198 -151.502L395.677 -148.651C394.749 -147.209 393.634 -145.939 392.372 -144.885L386.617 -151.502H379.975C383.036 -147.983 386.097 -144.463 389.158 -140.943C389.831 -141.401 390.107 -142.316 390.872 -142.633C392.617 -140.486 394.422 -138.409 396.259 -136.403C407.196 -123.943 418.073 -111.436 428.888 -98.8829C418.012 -86.259 407.094 -73.6937 396.137 -61.1871V-60.5888C352.335 -10.3629 307.677 40.8837 263.57 91.6375C262.683 92.623 259.316 96.0371 259.346 96.7762C259.377 97.5154 262.407 99.7328 262.407 100.542C262.407 101.352 260.295 102.83 259.652 103.569C245.909 119.373 232.105 135.528 218.606 150.944C219.004 151.859 220.198 152.246 220.045 153.056C219.892 153.865 218.024 155.238 217.29 156.083C203.669 171.71 189.742 187.971 176.488 203.141C175.233 202.078 174.119 200.809 173.183 199.375C187.783 182.586 202.506 165.973 216.892 148.973C215.901 147.67 214.793 146.49 213.586 145.453C198.976 162.137 184.416 178.879 169.908 195.679C170.152 196.665 171.101 196.841 171.346 197.791C169.51 199.797 167.704 201.874 165.959 204.021C180.896 221.267 195.864 238.502 210.862 255.725H227.452L182.641 203.986Z" fill="#AFFF00"/>
<path d="M398.432 251.536C398.432 250.445 401.493 248.826 401.493 247.77C401.493 246.714 399.412 245.06 398.861 244.251C397.759 242.983 396.841 241.998 396.106 241.224C385.189 228.764 374.313 216.257 363.477 203.704C374.354 191.056 385.271 178.491 396.229 166.008V165.375C441.897 113.002 487.514 60.5467 533.08 8.00967C534.029 8.32644 534.335 9.8751 535.07 9.69911C535.804 9.52313 536.967 7.34093 537.702 6.4962C551.323 -9.16637 565.648 -25.1809 578.626 -40.7027C577.634 -42.0062 576.526 -43.186 575.32 -44.2224C560.75 -27.4335 546.303 -10.539 531.519 6.00345C530.393 4.86707 529.368 3.6056 528.458 2.2374C541.712 -12.7916 555.792 -29.2285 569.229 -44.6799C570.069 -45.834 571.001 -46.8946 572.014 -47.8476C572.749 -48.0588 573.024 -46.5102 573.973 -46.1934C588.543 -63.0409 603.154 -79.8415 617.805 -96.5952C618.295 -95.9617 618.693 -95.3985 619.366 -94.6242C620.039 -93.8499 620.682 -92.7939 621.08 -92.7939C621.478 -92.7939 622.182 -94.0962 622.396 -94.3074C623.865 -95.9969 625.457 -97.8271 626.467 -99.1646C611.326 -116.599 596.154 -134.045 580.952 -151.502H548.048L593.593 -99.059C583.86 -87.796 573.116 -75.3715 562.985 -63.651C562.373 -62.9471 560.934 -61.7504 560.873 -61.3632C560.811 -60.976 561.913 -60.1665 562.311 -59.2514C507.032 4.45479 451.681 68.1023 396.259 131.691V132.325C375.476 156.188 354.57 179.911 334.032 204.056C337.093 207.575 340.153 211.095 343.214 214.615C342.305 215.994 341.279 217.267 340.153 218.416C335.929 213.7 331.767 208.878 327.665 204.056C350.581 177.541 373.558 151.108 396.596 124.757V124.124C450.875 61.7552 505.093 -0.637012 559.25 -63.0527C558.255 -64.3386 557.158 -65.5167 555.975 -66.5723C502.92 -5.40032 449.753 55.7248 396.473 116.803V117.437C371.109 146.11 345.887 174.96 320.809 203.985C326.012 210.063 331.277 216.105 336.603 222.112C337.307 221.689 337.49 220.633 338.439 220.458C348.642 232.19 358.845 243.922 369.048 255.654H382.271C369.721 241.576 357.447 227.004 344.898 212.855C344.898 211.729 346.459 211.799 346.489 210.884C346.52 209.969 343.888 207.892 343.429 207.364C342.174 205.956 341.255 204.76 340.521 203.845C359.07 182.375 377.669 160.987 396.32 139.681V139.047C451.416 75.6931 507.399 11.3182 562.924 -52.5288C563.597 -53.3031 565.403 -55.5205 565.556 -55.5557C566.413 -55.5557 568.035 -52.0361 568.831 -51.7545C511.327 14.4624 453.783 80.6324 396.198 146.755V147.248C379.884 166.149 363.355 184.838 347.224 203.845C347.972 204.846 348.77 205.798 349.612 206.696C350.469 207.012 350.713 205.393 351.57 205.182C366.201 221.865 380.771 238.619 395.28 255.443H402.35L401.432 254.387C400.373 253.523 399.37 252.57 398.432 251.536Z" fill="#AFFF00"/>
<path d="M333.174 225.702C332.442 224.717 331.644 223.799 330.787 222.957C325.43 216.797 319.278 209.828 314.228 204.056C341.408 172.379 368.925 140.983 396.32 109.482V108.954C448.396 49.1196 500.431 -10.715 552.425 -70.5496C551.429 -71.8355 550.333 -73.0136 549.149 -74.0692C498.135 -15.4079 447.12 43.2534 396.106 101.915C366.507 135.739 337.154 169.809 307.555 203.598C314.748 212.468 322.461 220.739 329.777 229.468C328.876 230.855 327.85 232.129 326.716 233.269C318.084 223.555 309.698 213.594 301.066 203.915C332.623 167.134 364.548 130.741 396.32 94.2067V93.5731C445.019 37.8214 494.482 -19.2678 543.242 -75.3715C543.988 -76.3313 544.785 -77.2364 545.629 -78.0817C546.395 -78.2928 546.609 -76.7442 547.588 -76.4274C554.047 -84.0651 560.75 -91.4565 567.209 -99.1294C552.149 -116.622 536.906 -133.904 521.724 -151.502H495.37C510.674 -134.115 525.673 -116.552 540.946 -99.1997C539.437 -97.1645 537.812 -95.2478 536.08 -93.4627C535.59 -92.8995 534.549 -91.9492 534.488 -91.6324C534.304 -90.6821 535.712 -90.3653 535.957 -89.5206C489.452 -35.8807 442.866 17.6888 396.198 71.188V71.7863C357.876 115.993 319.431 159.743 281.323 203.986C293.179 217.501 304.974 231.064 316.707 244.673C315.806 246.06 314.78 247.334 313.646 248.474C300.637 233.727 287.843 218.733 274.834 203.986C315.176 157.103 355.855 110.644 396.412 64.0078V63.3743C441.713 11.2126 487.412 -40.949 532.651 -93.4627C531.663 -94.7567 530.566 -95.9357 529.376 -96.9824C485.034 -45.947 440.642 5.10011 396.198 56.1589V56.7925C353.499 105.751 310.646 154.71 268.161 203.986C282.272 219.965 296.168 236.261 310.279 252.24C310.983 251.818 311.167 250.762 312.116 250.586L316.431 255.549H329.532L318.574 243.019C318.819 241.998 320.166 241.576 320.013 240.766C318.778 239.115 317.415 237.595 315.942 236.226C306.759 225.667 296.781 214.122 287.904 203.845C324.002 162.219 360.141 120.651 396.32 79.1424V78.5089C442.815 25.1154 490.258 -29.3341 537.12 -83.2204C537.763 -83.9595 539.049 -85.7898 539.232 -85.825C540.089 -85.825 541.712 -82.3053 542.538 -82.0237C493.809 -25.8731 445.029 30.2189 396.198 86.2522V86.8506C362.13 125.919 328.185 164.811 294.485 203.986C304.117 214.967 313.717 226.007 323.288 237.106C324.145 236.824 324.298 235.733 325.124 235.451L342.694 255.549H356.008L331.828 227.884C331.797 227.215 333.297 226.406 333.174 225.702Z" fill="#AFFF00"/>
</g>
</g>
<mask id="mask2_0_1" style="mask-type:alpha" maskUnits="userSpaceOnUse" x="11" y="0" width="162" height="216">
<path d="M12.3 151.8C14.4 170.1 23.1 185.4 37.8 197.7C52.5 210 70.2 216 90.3 216C111.3 216 129.6 210 144.9 197.7C160.2 185.4 169.2 170.1 171.3 151.8C171.9 145.5 172.2 130.8 172.2 108.3C172.2 85.8 171.9 71.4 171.3 65.1C169.2 46.8 160.2 31.5 144.9 19.2C129.6 6.89999 111.3 0.899995 90.3 0.899995C70.2 0.899995 52.5 6.89999 37.8 19.2C23.1 31.5 14.4 46.8 12.3 65.1C11.7 71.4 11.4 85.8 11.4 108.3C11.4 130.8 11.7 145.5 12.3 151.8ZM66 145.5C65.4 141 65.1 128.4 65.1 108.3C65.1 89.4 65.4 77.4 66 72.9C67.2 60.6 77.7 51.3 91.8 51.3C104.7 51.3 116.1 60.6 117.6 72.9C118.2 77.4 118.5 89.4 118.5 108.3C118.5 128.4 118.2 141 117.6 145.5C116.1 157.8 104.7 167.1 91.8 167.1C77.7 167.1 67.2 157.8 66 145.5Z" fill="#AFFF00"/>
</mask>
<g mask="url(#mask2_0_1)">
<path d="M-140.833 332.985C-134.16 325.066 -126.875 316.936 -119.774 308.77C-119.1 307.996 -117.294 305.25 -116.897 305.25C-116.499 305.25 -114.356 308.77 -113.591 308.77C-112.826 308.77 -111.418 306.553 -110.53 305.743C-96.9703 290.151 -82.9821 274.066 -69.6061 258.544C-68.9473 259.009 -68.3751 259.619 -67.9226 260.339C-53.2508 243.632 -38.6403 226.844 -24.091 209.973C-25.0007 208.593 -26.0259 207.32 -27.1518 206.171C-42.0072 222.808 -56.6484 239.585 -71.0753 256.503C-72.358 255.523 -73.5124 254.338 -74.5035 252.983C-61.4336 237.743 -47.2005 221.587 -33.5796 205.925C-32.845 205.08 -31.4064 202.863 -30.9473 202.757C-30.4882 202.652 -29.9372 204.13 -28.9883 204.411C-15.4899 188.678 -1.80782 173.051 12.0885 157.001C12.7313 156.227 14.3842 153.834 14.7209 153.834C15.0576 153.834 17.2614 157.353 17.996 157.353C18.7306 157.353 20.1692 155.136 21.0569 154.326C34.6471 138.699 48.6047 122.649 61.9807 107.128C62.9296 107.409 63.2051 108.958 63.9397 108.782C65.4755 107.265 66.8892 105.592 68.1637 103.784C89.1918 79.5685 111.138 54.438 132.075 30.293C124.147 20.5435 115.668 11.4275 107.588 1.81878C106.29 2.94153 105.136 4.26853 104.16 5.76082C111.291 13.7857 118.331 21.9513 125.341 30.117C103.915 55.1419 82.0294 79.8852 60.4809 104.875C59.1647 104.523 58.1546 102.517 57.0527 101.355C77.5912 77.6326 98.5275 54.1564 118.913 30.293C114.169 24.8727 108.353 18.2909 103.149 12.2722C102.35 11.4691 101.594 10.611 100.884 9.70286C100.884 9.03412 102.69 8.22459 102.476 7.59105L76.428 -22.5022H50.0739L89.3143 22.5497C90.0489 22.5497 90.355 20.825 91.1508 21.0362C91.9466 21.2474 92.62 22.7257 93.1404 23.324C95.0993 25.5766 97.395 28.4275 99.0479 30.117C81.9682 50.3199 64.3988 69.9598 47.1967 89.9515C45.9495 88.875 44.8461 87.5944 43.9216 86.1503C60.1748 67.4608 76.5811 48.9473 92.62 30.0114C90.9059 28.2868 89.5592 26.2805 87.7532 24.5559C87.4472 25.4006 84.4169 27.442 84.4475 28.3572C84.4781 29.2723 85.9779 29.1667 86.0392 30.3282C70.8368 47.645 55.6957 65.0439 40.6158 82.525C41.0138 83.2993 41.8096 83.5809 42.0851 84.496C27.4847 101.25 12.7619 117.863 -1.62415 134.863C-0.644675 136.306 0.702108 137.256 1.43672 138.805C-12.0719 154.479 -25.7234 170.2 -39.5177 185.968C-40.4974 186.951 -41.4178 188.01 -42.2725 189.136C-42.2725 189.875 -40.6809 190.509 -40.8339 191.283C-40.987 192.057 -42.9459 193.571 -43.5887 194.31C-57.2708 210.043 -71.1365 225.987 -84.3901 241.368C-85.6373 240.292 -86.7407 239.011 -87.6652 237.567C-73.0649 220.813 -58.3727 204.2 -43.9866 187.2C-44.9761 185.907 -46.073 184.728 -47.2617 183.681C-61.7703 200.575 -76.4624 217.188 -90.971 234.082C-90.573 234.857 -89.7772 235.138 -89.5017 236.053C-104.102 252.807 -118.825 269.42 -133.211 286.42C-132.231 287.863 -130.885 288.813 -130.15 290.362C-142.618 304.441 -154.994 318.672 -167.278 333.056L-122.375 384.76H-96.052C-110.928 367.466 -125.855 350.208 -140.833 332.985ZM48.6659 92.2393C49.5536 92.2393 49.8291 94.0695 50.5025 94.0343L52.2165 92.0633C69.939 71.4732 88.4878 50.3199 105.782 30.293C101.894 25.9638 98.0684 21.5994 94.3341 17.1294C95.4972 16.0031 96.4461 14.6304 97.6092 13.6097C102.384 19.4172 107.557 24.7671 112.21 30.7153C92.7118 52.8189 72.9999 75.0985 53.7776 97.7652C54.1755 98.5747 55.0937 98.7859 55.2468 99.877C40.4934 116.419 26.1685 133.455 11.4151 149.962C9.24192 147.463 6.94626 145.14 4.9567 142.395C19.5877 125.711 34.1574 108.97 48.6659 92.1689V92.2393ZM-82.9515 243.585C-82.1556 243.937 -81.8189 244.888 -81.1149 245.381C-67.9838 230.07 -53.5671 213.703 -40.0687 198.182C-39.3647 197.372 -37.7118 194.979 -37.3139 195.014C-36.4569 195.014 -34.8652 198.534 -34.253 198.78C-48.8534 215.534 -63.5762 232.182 -77.9623 249.182C-77.595 250.026 -76.6767 250.202 -76.493 251.294C-91.0934 267.73 -105.388 284.766 -120.172 301.308C-122.345 298.809 -124.671 296.486 -126.63 293.741C-111.897 277.034 -97.3274 260.28 -82.9209 243.48L-82.9515 243.585Z" fill="#AFFF00"/>
<path d="M-43.3125 288.884C-42.3636 289.165 -42.0575 290.714 -41.3229 290.538C-40.336 289.564 -39.4151 288.505 -38.5681 287.37C-25.1003 271.884 -11.0203 255.482 2.23327 240.312C1.32353 238.933 0.298329 237.66 -0.827602 236.511C-15.6422 253.054 -30.0895 269.948 -44.6592 286.737C-45.8624 285.709 -46.9611 284.528 -47.9344 283.217C-34.8645 267.942 -20.6314 251.822 -7.01055 236.159C-6.27594 235.314 -4.83733 233.097 -4.3782 232.991C-3.91907 232.886 -3.36811 234.364 -2.41924 234.646C10.8649 219.159 24.9143 203.215 38.627 187.447C39.3004 186.672 40.9227 184.279 41.2593 184.279C41.596 184.279 43.8305 187.799 44.5651 187.799C45.2997 187.799 48.1769 183.962 49.034 182.941C93.2329 132.153 137.799 80.8708 181.692 30.117C179.794 28.1812 178.172 25.999 176.274 24.0632C176.55 22.9721 177.897 22.6553 177.744 21.8106C176.894 20.6554 175.963 19.5841 174.958 18.6077C163.204 5.09209 150.808 -8.98663 139.146 -22.5022H132.381C146.461 -6.48765 160.358 9.73807 174.438 25.7174C173.528 27.0965 172.503 28.3697 171.377 29.5187C158.093 14.4544 144.074 -1.87688 130.453 -17.5394C129.718 -18.3842 127.79 -20.0384 127.698 -20.5664C127.606 -21.0943 128.586 -21.6927 129.014 -22.5022H102.966L115.975 -7.54356C116.71 -7.78994 117.046 -9.40899 117.689 -9.37379C117.689 -9.37379 119.25 -7.54356 119.801 -6.94521C130.545 5.40886 141.84 18.3965 152.032 30.4338C125.913 60.3276 99.8546 90.2801 73.8576 120.291C72.6042 119.237 71.4995 117.966 70.5825 116.525C95.3959 87.8515 120.281 59.1074 145.237 30.293C134.891 18.2792 124.495 6.31225 114.047 -5.60773C112.855 -4.40831 111.759 -3.08907 110.772 -1.66569C119.954 8.89334 129.474 19.4524 138.534 30.4338C114.639 57.7934 90.7536 85.2235 66.8788 112.724C67.1543 113.709 68.0726 113.885 68.3481 114.871C55.0027 130.146 40.8002 146.302 27.2712 161.929C26.5672 162.739 24.6388 164.745 24.6388 165.238C24.6388 165.73 27.6997 168.194 27.6997 169.039C27.6997 169.883 25.6183 171.291 24.9449 172.066C11.0486 188.045 -2.6029 203.743 -16.1013 219.405C-15.7034 220.356 -14.5097 220.743 -14.6627 221.517C-14.8158 222.292 -16.6829 223.699 -17.4175 224.544L-58.0658 271.602C-59.3193 270.548 -60.4239 269.277 -61.341 267.836C-46.7406 251.082 -32.0485 234.47 -17.6624 217.434C-18.6582 216.148 -19.7545 214.97 -20.9375 213.915L-62.0144 260.867C-62.9789 261.869 -63.8983 262.926 -64.7692 264.035C-64.7692 264.844 -63.2693 265.161 -63.1775 266.182C-76.5229 281.457 -90.7253 297.648 -104.254 313.24C-104.958 314.05 -106.887 316.056 -106.887 316.549C-106.887 317.041 -103.826 319.505 -103.826 320.35C-103.826 321.195 -106.06 322.778 -106.581 323.377C-109.427 326.615 -112.304 330.064 -114.723 332.915C-99.7855 350.161 -84.8179 367.396 -69.8196 384.619H-36.701L-81.6039 332.985C-69.1156 318.097 -56.0763 303.702 -43.3125 288.884ZM75.1432 122.438C76.092 122.72 76.3369 124.268 77.1021 124.092C77.9851 123.185 78.8231 122.222 79.6121 121.206C105.936 90.9371 132.81 60.0695 158.552 30.117C145.921 15.7333 133.33 1.25564 120.781 -13.3158C121.974 -14.4421 122.893 -15.8148 124.086 -16.8355C137.616 -0.926562 151.634 14.4896 165.01 30.5394C136.707 62.9674 108.456 95.4423 80.2548 127.964C80.5303 128.95 81.4486 129.126 81.724 130.076C67.0319 146.759 52.5846 163.689 37.8924 180.337C35.7192 177.838 33.3929 175.515 31.434 172.77C45.9629 156.016 60.4816 139.239 74.9901 122.438H75.1432ZM-93.8474 331.542C-96.0206 329.043 -98.3469 326.72 -100.306 323.975C-85.6749 307.292 -71.1153 290.55 -56.6272 273.749C-55.8008 274.101 -55.4947 275.052 -54.7601 275.544C-41.629 260.234 -27.2123 243.867 -13.7139 228.345C-13.0099 227.536 -11.357 225.142 -10.9591 225.178C-10.102 225.178 -8.51038 228.697 -7.8982 228.944C-21.213 244.043 -35.446 260.621 -48.822 276.002C-49.526 276.811 -51.5462 278.677 -51.5768 279.17C-51.6074 279.662 -50.2606 280.261 -50.1382 281.317C-64.7385 297.965 -79.1552 314.894 -93.8474 331.542Z" fill="#AFFF00"/>
<path d="M-214.722 372.863C-214.905 371.983 -213.559 371.702 -213.283 370.576C-224.241 358.069 -235.158 345.516 -246.034 332.915C-221.547 304.511 -196.785 276.107 -171.839 247.422C-171.227 246.718 -169.605 244.677 -169.451 244.677C-168.747 244.677 -166.911 248.196 -166.176 248.196C-165.442 248.196 -163.973 245.979 -163.269 245.169C-149.801 229.718 -135.476 213.14 -122.345 197.971C-121.396 198.287 -121.12 199.836 -120.386 199.625C-119.373 198.672 -118.44 197.611 -117.6 196.457L-76.9826 149.505C-77.8859 148.002 -79.041 146.721 -80.3802 145.738C-94.8275 162.563 -109.52 179.14 -123.936 195.964C-125.136 194.918 -126.243 193.739 -127.242 192.445C-114.05 177.064 -99.8473 160.943 -86.1652 145.281C-85.4306 144.436 -83.992 142.219 -83.5329 142.078C-83.0738 141.937 -82.4922 143.451 -81.5433 143.767C-68.4734 128.492 -53.9955 112.09 -40.4971 96.5334C-39.6868 95.4062 -38.8071 94.3476 -37.8647 93.3656C-37.0077 93.3656 -35.3548 96.8853 -34.5896 97.1669C-19.9994 80.4132 -5.40929 63.6126 9.18086 46.7651C9.79303 46.7651 10.4358 48.5953 11.1704 48.4193C11.8621 47.7143 12.5162 46.962 13.1294 46.1668C17.537 41.0984 22.6181 35.0094 26.8115 30.4338C11.6092 12.7415 -3.69519 -4.85687 -19.1016 -22.3614H-25.7131L20.2 30.4338C16.2821 35.5021 11.8438 40.0073 7.95651 44.9701C6.76409 43.9145 5.65762 42.7364 4.65076 41.4504C7.71163 37.6843 11.0174 34.411 13.8334 30.5394L-32.1715 -22.5022H-38.7524C-23.448 -4.92726 -8.14368 12.6711 7.16067 30.293C5.26293 32.6512 3.27337 34.9038 1.25319 37.1212C1.52867 38.0011 2.29389 38.3179 2.69181 39.0922C-11.8983 55.9397 -26.5395 72.7169 -41.2317 89.4236C-43.4355 87.1006 -45.4251 84.4961 -47.6595 82.1731C-33.304 65.1026 -18.4282 48.5953 -3.98089 31.6305C-2.9708 31.6305 -3.0014 33.4255 -2.26679 33.4607C-1.53218 33.4959 0.0288451 30.5746 0.487976 29.941L-45.3332 -22.5022H-61.6783L-15.7652 30.293C-28.3148 45.322 -41.3847 59.7527 -54.0567 74.641C-53.8731 75.6265 -50.9959 77.4567 -50.9959 78.407C-50.9959 78.7942 -53.1079 80.6948 -53.7506 81.4339C-67.4021 97.1317 -81.6352 113.569 -94.8275 128.809C-94.399 129.618 -93.5419 129.97 -93.2359 130.921C-107.928 147.498 -122.253 164.534 -137.068 181.006C-138.186 179.848 -139.21 178.576 -140.128 177.204C-125.528 160.451 -110.805 143.838 -96.4191 126.838C-97.4104 125.534 -98.5185 124.355 -99.7249 123.318C-114.315 140.001 -128.875 156.743 -143.404 173.544C-143.404 174.529 -141.842 174.811 -142.087 175.797C-187.633 227.923 -233.087 280.19 -278.541 332.387V333.443C-276.949 335.379 -275.296 337.279 -273.613 339.11C-272.725 338.898 -271.134 335.59 -270.307 335.59C-269.357 336.563 -268.477 337.622 -267.675 338.758C-254.513 354.104 -240.494 369.801 -227.577 384.619H-225.374C-225.159 384.384 -224.91 384.194 -224.639 384.056L-224.149 384.619H-217.783C-218.119 384.232 -218.487 383.845 -218.823 383.422C-219.803 382.44 -220.724 381.381 -221.578 380.255C-221.578 379.269 -218.517 377.404 -218.303 376.489L-211.202 384.619H-204.621C-207.039 381.874 -209.457 379.093 -211.845 376.313C-212.876 375.246 -213.838 374.093 -214.722 372.863V372.863ZM-135.506 182.801C-134.619 182.801 -134.343 184.666 -133.67 184.631C-132.713 183.653 -131.832 182.582 -131.038 181.428C-117.356 165.695 -103.122 149.434 -89.8383 134.229C-88.8894 135.672 -87.5426 136.623 -86.7774 138.171C-101.388 154.948 -115.937 171.784 -130.425 188.679C-130.058 189.453 -129.262 189.77 -128.987 190.65C-143.679 207.298 -158.126 224.227 -172.818 240.875C-175.022 238.552 -177.042 235.948 -179.246 233.625C-164.891 216.414 -150.046 199.906 -135.568 182.941L-135.506 182.801Z" fill="#AFFF00"/>
<path d="M-188.459 342.594C-188.643 341.714 -187.296 341.433 -187.021 340.306C-189.225 337.913 -191.367 335.449 -193.479 332.915C-177.991 314.789 -162.166 296.909 -146.219 278.571C-145.485 277.726 -143.618 275.052 -143.158 275.052C-142.699 275.052 -140.618 278.571 -139.883 278.571C-139.149 278.571 -137.71 276.389 -136.822 275.544C-123.232 259.917 -109.275 243.691 -95.8986 228.345C-94.9497 228.627 -94.6743 230.211 -93.9397 230C-92.9418 229.028 -92.0106 227.968 -91.1543 226.832L-50.5671 179.774C-51.4684 178.387 -52.4944 177.112 -53.628 175.973C-68.412 192.515 -82.8593 209.445 -97.4596 226.234C-98.6356 225.169 -99.7312 223.991 -100.735 222.714C-87.6343 207.438 -73.4318 191.283 -59.811 175.621C-59.0763 174.776 -57.6377 172.594 -57.1786 172.453C-56.7195 172.312 -56.1379 173.826 -55.2196 174.142C-42.1191 158.832 -27.6718 142.465 -14.1428 126.908C-13.3407 125.773 -12.4604 124.713 -11.5104 123.74C-10.6534 123.74 -9.00051 127.26 -8.23529 127.507C6.41607 110.8 21.0266 94.0109 35.5963 77.1399C36.5146 77.4215 36.8207 78.9702 37.5553 78.7942C38.5088 77.8767 39.3897 76.8637 40.1876 75.7673C53.1045 60.703 66.8784 44.9349 79.4586 30.293C64.1543 12.765 48.8499 -4.77474 33.5456 -22.3262H27.0871L73.0002 30.469C60.3282 45.6388 47.1359 60.2103 34.3414 75.2745C33.1429 74.2272 32.0358 73.0484 31.0357 71.7548C42.6874 57.77 54.4411 43.9494 66.2969 30.293C51.0945 12.6007 35.7902 -4.99766 20.3838 -22.5022H13.7724C29.0155 -4.97419 44.3199 12.6242 59.6854 30.293C49.156 42.8583 38.2593 54.9308 27.5769 67.3552C27.7299 68.4463 28.6482 68.6575 29.0155 69.5022C14.3845 86.2559 -0.256646 102.986 -14.908 119.693C-17.1118 117.37 -19.132 114.765 -21.3358 112.442C-6.98033 95.3367 7.86486 78.8646 22.3428 61.9701C23.2304 62.2517 23.6283 63.8003 24.3017 63.6244C25.5978 62.3476 26.7866 60.9335 27.8523 59.4007C36.1779 49.8624 45.3605 39.6201 53.1352 30.1874L7.31393 -22.5022H0.733036L46.6461 30.293C38.2899 40.3945 29.5665 50.1088 20.996 59.9639C19.8036 58.9083 18.6971 57.7302 17.6903 56.4442C25.067 47.645 32.811 39.3034 40.0652 30.3986L-5.84781 -22.5022H-12.5511C2.73282 -4.97419 18.0372 12.6242 33.3619 30.293C27.2402 37.8955 20.6287 44.8997 14.4151 52.3966C14.66 53.4173 15.7313 53.4877 15.8537 54.6492C1.16156 71.2621 -13.4592 87.9571 -28.0085 104.734C-28.0085 105.72 -24.9476 107.55 -24.9476 108.5C-25.8016 109.584 -26.7222 110.596 -27.7024 111.527C-41.3539 127.225 -55.587 143.662 -68.7793 158.902C-68.3508 159.712 -67.5244 160.064 -67.1877 161.014C-81.9104 177.592 -96.2047 194.627 -111.019 211.099C-112.145 209.95 -113.17 208.677 -114.08 207.298C-99.4798 190.544 -84.757 173.931 -70.4016 156.931C-71.3748 155.62 -72.4735 154.439 -73.6767 153.411C-88.3076 170.095 -102.867 186.837 -117.355 203.637C-117.11 204.658 -116.07 204.764 -115.917 205.89C-130.486 222.573 -145.056 239.292 -159.626 256.045C-159.442 257.101 -156.565 258.826 -156.565 259.811C-156.565 259.811 -157.973 261.43 -158.555 262.099C-178.848 285.646 -200.06 309.72 -219.925 332.985C-213.252 340.412 -206.825 348.085 -200.182 355.511C-199.478 355.019 -199.142 354.104 -198.346 353.716L-171.594 384.549H-164.952L-193.295 351.957C-193.846 351.323 -195.132 350.126 -195.132 349.985C-195.132 349.845 -193.142 347.522 -192.775 347.135C-192.408 346.747 -192.194 346.219 -191.979 346.219C-190.604 347.49 -189.333 348.904 -188.184 350.443L-158.463 384.619H-151.759C-163.35 371.315 -174.93 358.01 -186.5 344.706C-187.174 343.967 -188.429 342.805 -188.459 342.594ZM-109.244 213.316C-108.418 213.668 -108.111 214.654 -107.407 215.147C-94.2763 199.801 -79.8596 183.469 -66.3612 167.912C-65.6572 167.138 -63.9737 164.71 -63.5758 164.745C-63.1779 164.78 -61.1577 168.264 -60.515 168.511C-73.8297 183.61 -88.0628 200.188 -101.439 215.569C-102.143 216.414 -104.194 218.244 -104.224 218.772C-104.255 219.3 -102.908 219.828 -102.755 220.884C-117.447 237.532 -131.894 254.461 -146.587 271.109C-148.844 268.719 -150.989 266.193 -153.014 263.542C-138.343 246.788 -123.753 230.047 -109.244 213.316Z" fill="#AFFF00"/>
<path d="M278.813 5.90163C280.009 4.86332 281.106 3.68364 282.088 2.38195C290.25 11.5801 298.28 20.8134 306.177 30.0818C275.568 65.4195 244.909 100.687 214.198 135.883V136.517C163.755 194.404 113.352 252.362 62.9909 310.389C63.2664 311.023 64.5826 311.797 64.4602 312.501C63.7708 313.419 63.024 314.278 62.2257 315.071C57.0223 321.019 51.176 327.53 46.5541 333.091C61.4911 350.338 76.469 367.572 91.4876 384.795H98.1909C83.1927 367.619 68.3169 350.338 53.2574 333.232C58.0017 327.319 63.0522 321.793 68.0108 316.126C68.9902 317.464 70.184 318.555 71.0716 319.928C67.1843 324.222 63.3888 328.621 59.624 333.091C74.561 350.361 89.5491 367.596 104.588 384.795H111.261C96.2626 367.655 81.3868 350.338 66.3273 333.232C67.7965 331.226 70.2146 328.48 72.2654 326.193C72.7551 325.63 73.7958 324.01 74.2243 323.905C74.6529 323.799 75.4181 325.594 76.2139 325.594C122.168 272.588 168.173 219.675 214.228 166.857V166.223C253.714 120.937 293.148 75.5913 332.531 30.1874C320.288 15.7919 307.646 1.64282 295.311 -12.7879C296.429 -13.933 297.454 -15.1936 298.372 -16.5539L293.627 -22.5022H280.374C284.231 -18.0674 288.097 -13.6443 291.974 -9.233C290.077 -6.48764 287.659 -4.30544 285.639 -1.66568C279.517 -8.52906 273.395 -15.498 267.273 -22.5022H253.989C262.284 -13.0343 270.518 -3.53111 278.813 5.90163Z" fill="#AFFF00"/>
<path d="M-28.9881 332.986C-25.1007 328.305 -20.9992 323.87 -17.1425 319.189C-16.1936 319.505 -15.8875 321.054 -15.1529 320.878C-14.1668 319.891 -13.246 318.82 -12.3981 317.675C1.06968 302.224 15.1497 285.998 28.4033 270.617C27.4852 269.257 26.4607 267.996 25.3424 266.851C10.5278 283.393 -3.91953 300.288 -18.4893 317.077C-19.6886 316.031 -20.7958 314.852 -21.795 313.557C-8.66388 298.247 5.75281 281.88 19.2819 266.358C20.0766 265.205 20.9574 264.133 21.9142 263.155C22.5876 263.155 22.8631 264.915 23.7507 264.986C37.0043 249.499 51.0843 233.555 64.797 217.787C65.6003 216.642 66.4805 215.571 67.4293 214.584C68.1333 214.584 69.9699 218.103 70.7351 218.103C71.5003 218.103 74.3469 214.056 75.3264 212.929L214.412 53.1711V52.5376C220.993 45.0055 227.666 37.6141 234.032 29.8356C227.36 22.4091 220.932 14.701 214.29 7.27447C210.28 2.87487 206.485 -1.80631 202.444 -6.20591C202.689 -7.22662 203.76 -7.29701 203.883 -8.45851L191.639 -22.5372H184.906C190.109 -16.5068 195.343 -10.5117 200.608 -4.55166C199.69 -3.19133 198.665 -1.9307 197.547 -0.7856C191.425 -7.82496 184.967 -15.1459 178.539 -22.5372H171.836C179.365 -13.914 186.864 -5.32599 193.996 3.01566C194.67 3.01566 195.129 1.71337 195.833 1.32621C202.138 8.36557 208.076 15.6513 214.504 22.6555C216.677 25.0137 218.789 27.4422 220.84 29.906C218.728 32.4402 216.586 34.904 214.382 37.3326V37.9661C164.245 95.3721 114.383 153.024 64.3991 210.43C62.1953 208.002 60.0527 205.538 57.9406 203.004C107.71 145.422 157.623 87.8517 207.678 30.2932C201.557 22.9019 195.435 15.9329 189.13 8.78793C189.344 7.80242 190.691 7.38006 190.568 6.53534C182.059 -3.13205 173.591 -12.8581 165.163 -22.6428H158.398L187.293 10.4422C186.376 11.8938 185.272 13.1757 184.018 14.2434C173.407 2.01841 162.745 -10.2301 152.032 -22.502H145.328C157.143 -8.95126 168.897 4.7051 180.773 18.1503C181.63 17.8687 181.783 16.8128 182.61 16.496C186.467 21.2476 190.721 25.5416 194.455 30.5748C148.389 83.37 101.742 137.186 55.4919 190.368C54.5737 191.424 50.9925 194.768 51.0231 195.648C51.0537 196.528 54.0839 198.604 54.0839 199.414C54.0839 200.223 52.0026 201.702 51.3292 202.441C37.5859 218.244 23.7813 234.4 10.2829 249.816C10.6808 250.731 11.8746 251.153 11.7215 251.928C11.5685 252.702 9.70134 254.11 8.96673 254.954C-4.65413 270.582 -18.5811 286.878 -31.8347 302.013C-33.0881 300.958 -34.1928 299.688 -35.1098 298.247C-20.4482 281.352 -5.72544 264.704 8.72186 247.704C7.72269 246.409 6.61547 245.23 5.41611 244.184C-7.83745 259.389 -22.1317 275.861 -35.6301 291.242C-36.6023 292.234 -37.5222 293.292 -38.3849 294.41C-38.3849 295.184 -36.8851 295.536 -36.8239 296.522C-47.4145 308.7 -58.25 320.737 -68.5345 333.162C-53.5362 350.338 -38.5686 367.526 -23.6315 384.725H-10.3168L-55.3115 332.986C-47.1696 323.06 -38.538 313.733 -30.3042 303.913C-29.4472 303.913 -29.1105 305.708 -28.5901 305.743C-28.0698 305.779 -26.5088 303.35 -25.8354 302.576C-12.2757 287.019 2.07976 270.899 15.2415 255.342C15.2415 256.186 18.486 258.017 18.5166 258.861C18.5166 259.284 16.4353 261.255 15.7619 262.029C2.29404 277.516 -11.786 294.023 -25.162 309.087C-25.162 309.897 -24.0601 310.389 -23.7234 311.199C-29.8451 318.52 -36.3035 325.278 -42.2722 332.845L2.60012 384.62H15.9149C0.916637 367.42 -14.051 350.209 -28.9881 332.986Z" fill="#AFFF00"/>
<path d="M0.64084 332.986C14.1393 316.971 27.9744 301.309 41.6871 285.611C42.6666 286.984 43.8603 288.039 44.748 289.412C32.1372 303.878 19.3734 318.238 6.97684 332.986L51.941 384.549H58.6137C43.7175 367.397 28.7702 350.209 13.772 332.986C23.9035 321.019 35.1981 308.066 45.8805 295.748C46.4927 295.079 47.7782 293.389 47.9925 293.319C48.7271 293.319 49.0638 294.727 49.9821 295.008C104.71 231.936 159.49 168.933 214.32 106.001V105.368C236.236 80.2022 258.305 55.142 280.006 29.7299C277.619 27.1957 274.497 23.3945 271.834 20.3323C271.252 19.6636 269.049 17.8686 269.079 17.1646C269.11 16.4607 270.548 15.44 270.64 15.3344C271.314 14.5601 271.895 14.2433 272.232 13.3986C261.845 1.40818 251.438 -10.5587 241.011 -22.5022H227.696C240.368 -8.0011 253.02 6.55865 265.651 21.1771C263.57 23.7112 261.396 26.175 259.193 28.5684C244.409 11.9203 230.053 -4.90378 215.392 -21.6575C215.402 -21.8308 215.449 -21.9987 215.529 -22.146C215.609 -22.2934 215.72 -22.4157 215.851 -22.5022L211.198 -22.5022L213.677 -19.6513C212.749 -18.2095 211.634 -16.9394 210.372 -15.8852L204.617 -22.5022H197.975C201.036 -18.9825 204.097 -15.4628 207.158 -11.9431C207.831 -12.4007 208.107 -13.3158 208.872 -13.6326C210.617 -11.4856 212.422 -9.40898 214.259 -7.40276C225.196 5.05692 236.073 17.5635 246.888 30.1171C236.012 42.741 225.094 55.3063 214.137 67.8129V68.4112C170.335 118.637 125.677 169.884 81.5703 220.638C80.6826 221.623 77.3156 225.037 77.3462 225.776C77.3768 226.515 80.4071 228.733 80.4071 229.542C80.4071 230.352 78.2951 231.83 77.6523 232.569C63.909 248.373 50.1045 264.528 36.6061 279.944C37.004 280.859 38.1977 281.246 38.0447 282.056C37.8916 282.865 36.0245 284.238 35.2899 285.083C21.669 300.71 7.74205 316.971 -5.51152 332.141C-6.76735 331.078 -7.88108 329.809 -8.81726 328.375C5.78309 311.586 20.5059 294.973 34.892 277.973C33.9007 276.67 32.7927 275.49 31.5862 274.453C16.9757 291.137 2.41613 307.879 -12.0924 324.679C-11.8475 325.665 -10.8986 325.841 -10.6538 326.791C-12.4903 328.797 -14.2962 330.874 -16.0409 333.021C-1.10385 350.267 13.8638 367.502 28.8621 384.725H45.452L0.64084 332.986Z" fill="#AFFF00"/>
<path d="M216.432 380.536C216.432 379.445 219.493 377.826 219.493 376.77C219.493 375.714 217.412 374.06 216.861 373.251C215.759 371.983 214.841 370.998 214.106 370.224C203.189 357.764 192.313 345.257 181.477 332.704C192.354 320.056 203.271 307.491 214.229 295.008V294.375C259.897 242.002 305.514 189.547 351.08 137.01C352.029 137.326 352.335 138.875 353.07 138.699C353.804 138.523 354.967 136.341 355.702 135.496C369.323 119.834 383.648 103.819 396.626 88.2973C395.634 86.9938 394.526 85.814 393.32 84.7776C378.75 101.566 364.303 118.461 349.519 135.003C348.393 133.867 347.368 132.606 346.458 131.237C359.712 116.208 373.792 99.7715 387.229 84.3201C388.069 83.166 389.001 82.1054 390.014 81.1524C390.749 80.9412 391.024 82.4898 391.973 82.8066C406.543 65.9591 421.154 49.1585 435.805 32.4048C436.295 33.0383 436.693 33.6015 437.366 34.3758C438.039 35.1501 438.682 36.2061 439.08 36.2061C439.478 36.2061 440.182 34.9038 440.396 34.6926C441.865 33.0031 443.457 31.1729 444.467 29.8354C429.326 12.4013 414.154 -5.04459 398.952 -22.5022H366.048L411.593 29.941C401.86 41.204 391.116 53.6285 380.985 65.349C380.373 66.0529 378.934 67.2496 378.873 67.6368C378.811 68.024 379.913 68.8335 380.311 69.7486C325.032 133.455 269.681 197.102 214.259 260.691V261.325C193.476 285.188 172.57 308.911 152.032 333.056C155.093 336.575 158.153 340.095 161.214 343.615C160.305 344.994 159.279 346.267 158.153 347.416C153.929 342.7 149.767 337.878 145.665 333.056C168.581 306.541 191.558 280.108 214.596 253.757V253.124C268.875 190.755 323.093 128.363 377.25 65.9473C376.255 64.6614 375.158 63.4833 373.975 62.4277C320.92 123.6 267.753 184.725 214.473 245.803V246.437C189.109 275.11 163.887 303.96 138.809 332.985C144.012 339.063 149.277 345.105 154.603 351.112C155.307 350.689 155.49 349.633 156.439 349.458C166.642 361.19 176.845 372.922 187.048 384.654H200.271C187.721 370.576 175.447 356.004 162.898 341.855C162.898 340.729 164.459 340.799 164.489 339.884C164.52 338.969 161.888 336.892 161.429 336.364C160.174 334.956 159.255 333.76 158.521 332.845C177.07 311.375 195.669 289.987 214.32 268.681V268.047C269.416 204.693 325.399 140.318 380.924 76.4712C381.597 75.6969 383.403 73.4795 383.556 73.4443C384.413 73.4443 386.035 76.9639 386.831 77.2455C329.327 143.462 271.783 209.632 214.198 275.755V276.248C197.884 295.149 181.355 313.838 165.224 332.845C165.972 333.846 166.77 334.798 167.612 335.696C168.469 336.012 168.713 334.393 169.57 334.182C184.201 350.865 198.771 367.619 213.28 384.443H220.35L219.432 383.387C218.373 382.523 217.37 381.57 216.432 380.536Z" fill="#AFFF00"/>
<path d="M151.174 354.702C150.442 353.717 149.644 352.799 148.787 351.957C143.43 345.797 137.278 338.828 132.228 333.056C159.408 301.379 186.925 269.983 214.32 238.482V237.954C266.396 178.12 318.431 118.285 370.425 58.4504C369.429 57.1645 368.333 55.9864 367.149 54.9308C316.135 113.592 265.12 172.253 214.106 230.915C184.507 264.739 155.154 298.809 125.555 332.598C132.748 341.468 140.461 349.739 147.777 358.468C146.876 359.855 145.85 361.129 144.716 362.269C136.084 352.555 127.698 342.594 119.066 332.915C150.623 296.134 182.548 259.741 214.32 223.207V222.573C263.019 166.821 312.482 109.732 361.242 53.6285C361.988 52.6687 362.785 51.7636 363.629 50.9183C364.395 50.7072 364.609 52.2558 365.588 52.5726C372.047 44.9349 378.75 37.5435 385.209 29.8706C370.149 12.3778 354.906 -4.9038 339.724 -22.5022H313.37C328.674 -5.11498 343.673 12.4482 358.946 29.8003C357.437 31.8355 355.812 33.7522 354.08 35.5373C353.59 36.1005 352.549 37.0508 352.488 37.3676C352.304 38.3179 353.712 38.6347 353.957 39.4794C307.452 93.1193 260.866 146.689 214.198 200.188V200.786C175.876 244.993 137.431 288.743 99.3232 332.986C111.179 346.501 122.974 360.064 134.707 373.673C133.806 375.06 132.78 376.334 131.646 377.474C118.637 362.727 105.843 347.733 92.8342 332.986C133.176 286.103 173.855 239.644 214.412 193.008V192.374C259.713 140.213 305.412 88.051 350.651 35.5373C349.663 34.2433 348.566 33.0643 347.376 32.0176C303.034 83.053 258.642 134.1 214.198 185.159V185.792C171.499 234.751 128.646 283.71 86.1615 332.986C100.272 348.965 114.168 365.261 128.279 381.24C128.983 380.818 129.167 379.762 130.116 379.586L134.431 384.549H147.532L136.574 372.019C136.819 370.998 138.166 370.576 138.013 369.766C136.778 368.115 135.415 366.595 133.942 365.226C124.759 354.667 114.781 343.122 105.904 332.845C142.002 291.219 178.141 249.651 214.32 208.142V207.509C260.815 154.115 308.258 99.6659 355.12 45.7796C355.763 45.0405 357.049 43.2102 357.232 43.175C358.089 43.175 359.712 46.6947 360.538 46.9763C311.809 103.127 263.029 159.219 214.198 215.252V215.851C180.13 254.919 146.185 293.811 112.485 332.986C122.117 343.967 131.717 355.007 141.288 366.106C142.145 365.824 142.298 364.733 143.124 364.451L160.694 384.549H174.008L149.828 356.884C149.797 356.215 151.297 355.406 151.174 354.702Z" fill="#AFFF00"/>
</g>
<path d="M262.939 206.061C263.525 206.646 264.475 206.646 265.061 206.061L274.607 196.515C275.192 195.929 275.192 194.979 274.607 194.393C274.021 193.808 273.071 193.808 272.485 194.393L264 202.879L255.515 194.393C254.929 193.808 253.979 193.808 253.393 194.393C252.808 194.979 252.808 195.929 253.393 196.515L262.939 206.061ZM262.5 105V205H265.5V105H262.5Z" fill="#FF0000"/>
</svg>
