<svg width="422" height="126" viewBox="0 0 422 126" fill="none" xmlns="http://www.w3.org/2000/svg">
                <mask id="mask0_1_423" style="mask-type:alpha" maskUnits="userSpaceOnUse" x="0" y="0" width="422" height="126">
                    <path fill-rule="evenodd" clip-rule="evenodd" d="M288.854 26.8341L286.422 47.264H269.616V91.0899C269.616 101.404 272.899 106.34 280.516 106.34C282.957 106.391 285.395 106.144 287.785 105.603V124.491C284.259 125.304 280.659 125.683 277.055 125.619C258.184 125.619 248.837 114.958 248.837 93.5616V47.2788H244.525C243.282 47.2788 241.963 47.3108 240.585 47.3442C239.077 47.3807 237.499 47.419 235.873 47.419C221.505 47.419 212.328 57.7409 212.328 73.3013V75.8615V122.978H191.734V28.5385H212.335V41.819V42.5568C216.45 32.7145 225.831 27.0407 237.937 26.9226V26.8341H248.837V0H269.643V26.8341H288.854ZM134.208 26.4588C148.59 26.4588 159.149 33.0179 162.092 42.2036V28.5542H182.844V122.994H162.079V109.307C159.136 118.493 148.576 125.06 134.208 125.06C121.946 125.064 111.565 120.377 103.068 110.997C96.9944 104.132 92.9419 95.4676 91.4252 86.1033C89.9028 95.5025 85.7865 104.182 79.6189 110.997C71.3143 120.374 60.8979 125.06 48.6352 125.06C34.2742 125.06 23.7147 118.493 20.7716 109.307V122.994H0V0.0673828H20.758V42.2036C23.7011 33.0179 34.2606 26.4588 48.6216 26.4588C60.9115 26.4588 71.3007 31.1439 79.6053 40.6985C85.7919 47.4281 89.9143 56.0583 91.4115 65.4151C92.9035 56.0937 96.9618 47.4782 103.054 40.6985C111.536 31.1439 121.946 26.4588 134.208 26.4588ZM45.8693 104.622C53.3154 104.622 59.3719 101.811 64.2156 96.3736C69.2365 90.9433 71.6618 84.0817 71.6618 75.7961C71.6618 67.5105 69.2365 60.5751 64.2156 55.1374C59.3719 49.6998 53.3086 46.8887 45.8693 46.8887C42.3487 46.8259 38.8519 47.523 35.5827 48.9392C32.3135 50.3554 29.3374 52.4625 26.828 55.1374C21.8003 60.5751 19.2115 67.5105 19.2115 75.7592C19.2115 84.0079 21.8003 90.9433 26.828 96.3736C29.3374 99.0485 32.3135 101.156 35.5827 102.572C38.8519 103.988 42.3487 104.685 45.8693 104.622ZM136.995 104.622C144.427 104.622 150.838 101.819 155.859 96.3736C161.05 90.9433 163.646 84.0817 163.646 75.7961C163.646 67.5105 161.05 60.5751 155.859 55.1374C150.838 49.6998 144.434 46.8887 136.995 46.8887C133.549 46.8107 130.126 47.5029 126.939 48.9222C123.752 50.3414 120.869 52.4573 118.471 55.1374C113.627 60.5751 111.202 67.5105 111.202 75.7592C111.202 84.0079 113.627 90.9433 118.471 96.3736C120.869 99.0537 123.752 101.17 126.939 102.589C130.126 104.008 133.549 104.7 136.995 104.622ZM318.558 92.0638V0H297.786V95.0593C297.786 115.497 306.962 125.619 325.309 125.619C328.631 125.722 331.951 125.343 335.18 124.491V104.437C333.145 105.001 331.046 105.25 328.947 105.175C321.323 105.182 318.558 101.25 318.558 92.0638ZM409.887 39.5689C418.021 48.7619 422 60.0061 422 73.508C422 76.1915 421.845 78.707 421.7 81.0479L421.68 81.3804H353.833C354.521 96.3727 364.733 106.127 380.143 106.127C389.116 106.127 396.902 102.556 403.654 95.2512L416.087 108.296C406.222 119.54 394.109 125.162 379.394 125.162C365.769 125.162 354.494 120.676 346.012 111.881C337.531 103.087 333.205 91.2745 333.205 76.4666V75.7288C333.205 60.7587 337.531 48.7619 346.012 39.5762C354.671 30.3905 365.571 25.8899 378.904 25.8899C391.541 25.8899 401.944 30.3905 409.887 39.5689ZM362.11 51.0418C357.437 54.9767 354.841 59.8512 354.324 65.6651L400.888 65.6282C400.888 59.9988 398.633 55.1292 394.307 51.1893C390.084 47.0844 384.577 44.8739 378.904 45.0065C372.837 44.9026 366.916 47.0302 362.11 51.0418Z" fill="black"/>
                </mask>
                <g mask="url(#mask0_1_423)">
                    <path d="M428.167 89.9264V86.6499C418.432 91.1721 409.128 96.7109 400.385 103.188C386.836 113.166 373.717 123.758 360.468 134.18C358.19 135.969 355.919 137.763 353.654 139.561H361.172C372.909 130.174 384.66 120.837 396.427 111.548C406.553 103.52 417.024 96.0204 428.167 89.9264Z" fill="#00E7CF"/>
                    <path d="M424.673 86.6357C424.892 86.5465 425.09 86.4068 425.255 86.2264C425.419 86.046 425.545 85.829 425.625 85.5906L416.085 87.709C416.568 87.1866 417.094 86.7139 417.657 86.2968C421.292 84.3461 424.803 82.1357 428.167 79.6802V68.2124C427.059 69.121 425.948 70.0225 424.836 70.917C419.736 74.8305 414.243 78.1066 408.463 80.6829C396.075 86.4592 383.263 86.9464 370.757 81.2408C362.568 77.4982 354.704 72.8659 346.834 68.3466C336.95 62.6974 327.339 56.4622 317.383 50.9684C306.713 44.988 295.166 41.0599 283.256 39.3594C268.911 37.3963 255.128 39.7337 241.67 45.1004C227.69 50.6648 214.904 58.6936 202.777 67.8947C177.131 87.3371 151.6 106.928 126.184 126.667C120.533 131.017 114.869 135.315 109.192 139.561H120.674C125.949 135.466 131.204 131.349 136.492 127.281C158.661 110.249 180.751 93.1605 202.998 76.2766C214.018 67.9088 225.519 60.353 237.869 54.4214C251.411 47.9179 265.495 44.0341 280.452 44.6696C294.105 45.2557 306.957 49.3443 319.208 55.6501C325.813 59.0467 332.281 62.7963 338.671 66.6519C352.826 75.2103 366.284 85.2164 382.461 90.7666C381.955 91.1474 381.41 91.4627 380.837 91.7058C364.837 94.2832 349.984 100.462 335.724 108.498C331.121 111.097 326.53 113.752 322.129 116.724C311.11 124.177 300.2 131.789 289.398 139.561H301.486C309.976 133.399 318.504 127.279 327.072 121.201C343.033 109.847 359.842 100.151 378.405 94.6151C384.317 92.8683 390.351 91.652 396.447 90.9785C394.217 91.727 391.987 92.4543 389.763 93.217C374.689 98.4071 360.677 106.062 347.382 115.164C337.902 121.639 328.571 128.298 319.443 135.296C317.578 136.708 315.702 138.121 313.816 139.533H324.542C330.697 134.896 336.856 130.266 343.02 125.643C353.72 117.607 365 110.426 376.273 103.407C386.383 97.2411 397.203 92.5538 408.45 89.4673C409.387 89.1571 410.376 89.0752 411.345 89.2273C411.052 89.5236 410.725 89.7798 410.374 89.9899C393.186 97.0513 377.512 107.093 362.515 118.405C353.387 125.311 344.337 132.415 335.326 139.533H345.263C355.95 131.059 366.48 122.395 377.29 114.112C392.013 102.898 407.616 93.2593 424.673 86.6357Z" fill="#00E7CF"/>
                    <path d="M428.167 98.0752V93.4712C421.171 97.8634 414.384 102.708 407.733 107.82C394.425 118.109 381.47 128.92 368.397 139.561H374.865C387.481 129.379 400.111 119.21 412.884 109.253C417.859 105.349 422.951 101.599 428.167 98.0752Z" fill="#00E7CF"/>
                    <path d="M391.921 129.675C387.709 132.971 383.482 136.266 379.24 139.561H385.577L386.881 138.537C400.574 127.945 414.038 117.078 428.141 107.185V102.291C415.727 110.842 403.847 120.291 391.921 129.675Z" fill="#00E7CF"/>
                    <path d="M20.9541 -17.0389C22.8449 -19.275 24.7554 -21.4993 26.6853 -23.7119H19.5457C14.0231 -17.3072 8.55264 -10.846 3.00394 -4.45543C-3.64015 3.19915 -10.0952 11.0726 -17.0001 18.4448V26.9185C-15.2266 25.1531 -13.4878 23.3313 -11.7839 21.4529C-0.458286 9.07426 10.0849 -4.15885 20.9541 -17.0389Z" fill="#00E7CF"/>
                    <path d="M2.95831 24.9343C13.7427 12.3791 23.986 -0.719883 34.5096 -13.5364C37.3459 -16.9682 40.1952 -20.3789 43.1098 -23.7119H35.3507C26.3789 -13.1198 17.6027 -2.32283 8.76129 8.41055C0.656672 18.2613 -7.67616 27.8295 -17.0001 36.3032V44.671C-9.85122 38.7057 -3.1752 32.1039 2.95831 24.9343Z" fill="#00E7CF"/>
                    <path d="M23.347 43.3993C34.7639 29.9191 45.4244 15.6833 56.3588 1.73699C63.1594 -6.94854 70.0056 -15.5917 77.3669 -23.6841H69.2102C62.0379 -15.7118 55.3352 -7.25924 48.6911 1.24269C40.5212 11.7006 32.3905 22.2151 24.1294 32.5671C12.0801 47.6079 -1.56672 60.1066 -17.0001 69.6889V76.6938C-1.8182 68.3025 11.8479 57.0252 23.347 43.3993Z" fill="#00E7CF"/>
                    <path d="M42.6142 61.2441C53.4182 49.3809 62.9638 36.1195 72.9789 23.4301C82.6809 11.1715 92.0831 -1.36957 102 -13.4164C104.965 -16.9847 108.034 -20.4166 111.207 -23.7119H103.128C98.8902 -19.2844 94.8672 -14.6168 91.0203 -9.75854C79.0687 5.34584 67.5475 20.8598 55.6938 36.0419C49.6756 43.7388 43.6379 51.4499 37.0199 58.5607C21.1627 75.6635 3.15609 87.981 -17.0001 95.5132V100.308C5.30558 93.0699 25.29 80.2252 42.6142 61.2441Z" fill="#00E7CF"/>
                    <path d="M79.9685 69.4284C91.9592 55.9693 103.076 41.564 114.754 27.7236C124.808 15.8251 134.725 3.7147 145.431 -7.44943C151.212 -13.3934 157.419 -18.8313 163.994 -23.7119H154.677C148.259 -18.5832 142.272 -12.8506 136.786 -6.58087C125.871 5.83314 115.471 18.7838 104.928 31.5509C94.4369 44.205 84.5262 57.4875 73.4418 69.492C48.4368 96.5302 18.1113 112.03 -17.0001 116.401V118.52C-4.16601 117.288 8.47507 114.32 20.6281 109.686C43.1358 101.028 63.342 88.113 79.9685 69.4284Z" fill="#00E7CF"/>
                    <path d="M102.913 -4.40598C93.348 7.59844 84.2588 20.0407 74.7197 32.0733C65.4415 43.7671 56.4632 55.8633 46.2981 66.5684C28.733 85.2024 6.87399 98.3925 -17.0001 104.764L-17.0001 108.351C12.6865 101.452 38.6043 85.3871 60.3753 59.4646C71.0228 46.754 80.9465 33.3373 91.0724 20.1748C101.889 6.05199 112.68 -8.02143 125.075 -20.5555C126.132 -21.6194 127.199 -22.6715 128.277 -23.7119H120.146C114.047 -17.6589 108.293 -11.2118 102.913 -4.40598Z" fill="#00E7CF"/>
                    <path d="M118.62 -4.10232C106.395 10.9456 94.6586 26.4525 82.5962 41.6487C75.9064 50.0659 69.3015 58.5961 62.0966 66.4696C39.6867 90.9304 13.2668 105.879 -17.0001 111.543V114.276C16.3313 109.099 45.77 93.0277 70.6642 64.7043C81.2986 52.608 90.8768 39.4243 101.087 26.8903C111.565 14.0314 122.011 1.1302 132.88 -11.3403C136.761 -15.7802 140.929 -19.9146 145.353 -23.7119H137.138C130.51 -17.6999 124.319 -11.144 118.62 -4.10232Z" fill="#00E7CF"/>
                    <path d="M33.7859 51.9578C43.6379 40.6736 52.4924 28.3232 61.8945 16.566C72.7115 3.05749 83.4568 -10.5287 94.5999 -23.6841H86.893C80.9857 -17.2864 75.3001 -10.6275 69.7709 -3.86269C58.2236 10.2601 47.4001 25.0891 36.1397 39.5226C21.3649 58.4119 3.82549 73.4386 -17.0001 83.8048V89.7434C1.90855 81.5098 18.8611 68.997 33.7859 51.9578Z" fill="#00E7CF"/>
                    <path d="M12.054 35.3571C24.1555 21.3684 35.1616 6.29925 47.0871 -7.87308C51.586 -13.2304 56.1741 -18.51 60.8513 -23.7119H52.0425C50.934 -22.4267 49.8321 -21.1204 48.7432 -19.8069C38.4217 -7.3576 28.6414 5.58604 18.2091 17.9012C10.111 27.4342 1.90855 37.0236 -7.18714 45.3773C-10.3864 48.2961 -13.6574 51.043 -17.0001 53.618V61.6187C-6.33564 54.2207 3.42588 45.3974 12.054 35.3571Z" fill="#00E7CF"/>
                    <path d="M400.385 139.561H407.974C414.534 134.383 421.271 129.47 428.187 124.824V120.015C424.431 122.524 420.68 125.036 416.933 127.55C411.234 131.335 405.718 135.339 400.385 139.561Z" fill="#00E7CF"/>
                    <path d="M395.273 139.561C399.242 136.511 403.286 133.549 407.407 130.678C414.351 125.855 421.23 120.933 428.167 116.131V111.527C415.173 120.707 402.334 130.099 389.529 139.561H395.273Z" fill="#00E7CF"/>
                    <path d="M370.111 89.5308L370.007 89.6016L370.111 89.5308Z" fill="#00E7CF"/>
                    <path d="M330.56 92.8076C342.511 89.4958 354.619 88.0624 366.949 89.5664C367.935 89.6405 368.924 89.6405 369.909 89.5664C365.652 86.7419 361.485 83.769 357.117 81.1704C345.38 74.1584 333.781 66.6663 321.627 60.537C295.651 47.4381 269.27 47.5087 243.248 60.537C233.617 65.3599 224.085 70.7337 215.282 77.1101C193.935 92.5605 172.992 108.66 151.997 124.676C145.66 129.506 139.465 134.562 133.245 139.589H144.512C151.15 134.308 157.8 129.047 164.529 123.913C183.655 109.296 202.972 94.9378 222.481 80.8385C233.783 72.6247 246.067 66.1199 258.994 61.5044C277.674 54.8879 296.381 54.676 315.139 61.0948C332.953 67.1818 348.666 77.7315 364.537 87.9282L364.165 88.8532L360.507 86.8902H360.448L360.54 86.9678L360.266 86.9255C359.19 87.1373 358.095 87.5398 357.051 87.4057C337.171 84.9624 318.419 89.5241 300.326 98.0401C284.703 105.398 270.463 115.284 256.197 125.071C249.422 129.732 242.778 134.583 236.225 139.561H249.383C260.865 131.088 272.576 122.974 284.449 115.115C298.904 105.546 314.018 97.3905 330.56 92.8076Z" fill="#00E7CF"/>
                    <path d="M195.474 64.2088C206.558 55.6856 218.021 47.7839 230.481 41.7605C241.024 36.6692 251.946 33.195 263.532 32.3829C278.913 31.3096 293.525 34.7485 307.374 41.6969C317.748 46.9083 327.71 53.0658 337.875 58.7574C345.915 63.2555 353.817 68.0926 362.078 72.054C376.377 78.9107 390.891 78.487 405.053 71.4467C410.66 68.77 415.997 65.4762 420.982 61.6172C423.395 59.6824 425.8 57.7123 428.154 55.6927V44.7545C420.576 51.756 412.171 57.6355 403.162 62.2386C393.832 66.9204 384.097 69.4766 373.737 68.7493C365.345 68.1632 357.54 65.2821 350.133 61.2359C341.005 56.2364 332.118 50.6438 322.931 45.7008C313.881 40.8425 304.792 35.9207 295.351 32.0863C274.101 23.4432 252.78 24.1775 231.857 33.6963C225.734 36.5209 219.586 39.4797 214.004 43.314C202.77 51.0392 191.836 59.2446 180.927 67.5347C154.677 87.5186 128.668 107.884 102.307 127.705C96.8384 131.815 91.3006 135.767 85.6932 139.561H96.921C103.367 134.985 109.742 130.278 116.045 125.438C142.539 105.059 169.015 84.6493 195.474 64.2088Z" fill="#00E7CF"/>
                    <path d="M175.835 63.2482C181.084 58.7924 186.43 54.5132 191.823 50.3187C202.405 42.0145 213.398 34.4305 225.356 28.5907C247.14 17.9632 269.394 16.3815 291.778 25.5825C302.692 30.0736 313.125 35.9628 323.687 41.4142C331.857 45.6511 339.779 50.4176 348.021 54.4567C363.956 62.2737 380.152 62.076 396.042 54.4567C403.099 51.0852 409.864 47.037 416.255 42.3605C420.33 39.3664 424.281 36.1676 428.154 32.8487V22.6803C424.838 25.4484 421.504 28.1882 418.152 30.8998C410.438 37.0911 402.026 42.1928 393.121 46.0819C375.621 53.8494 358.134 54.2449 340.79 45.644C333.05 41.8026 325.533 37.4387 317.813 33.5408C308.534 28.852 299.315 23.9372 289.776 19.9616C275.223 13.9029 260.102 12.0669 244.63 15.1528C232.01 17.649 219.973 22.8282 209.212 30.3914C197.476 38.5967 185.87 47.1199 174.981 56.554C150.295 77.943 124.123 97.0018 97.9512 116.089C86.1765 124.677 73.9524 132.519 61.3402 139.575H73.3113C81.0704 134.764 88.7121 129.619 96.2364 124.139C123.184 104.452 150.191 84.9197 175.835 63.2482Z" fill="#00E7CF"/>
                    <path d="M110.307 73.4799C121.633 63.481 131.876 52.0344 142.445 41.061C155.486 27.4819 168.526 13.811 183.399 2.50564C192.377 -4.32275 201.89 -10.0425 212.322 -13.8698C230.742 -20.6346 249.077 -19.293 267.222 -12.7964C277.453 -9.13864 287.487 -4.85236 297.607 -0.792042C311.373 4.76258 325.949 7.58981 340.64 7.55455C357.593 7.48394 373.932 3.6284 390.044 -1.62529C402.778 -5.81271 415.473 -10.099 428.2 -14.3358V-19.985C422.943 -18.0409 417.34 -17.4462 411.834 -18.2479C409.373 -18.5084 406.899 -18.6027 404.427 -18.5303C404.427 -18.2761 402.015 -17.916 402.028 -17.6618C406.892 -17.0757 417.761 -16.3272 418.009 -15.9317C401.395 -12.7329 384.417 -9.13864 367.758 -6.23639C337.321 -0.926208 307.543 -3.63779 278.568 -15.4939C271.591 -18.3185 264.569 -21.143 257.475 -23.6287H250.166C251.761 -23.205 253.354 -22.7342 254.945 -22.2164C263.61 -19.3918 272.197 -16.2424 280.602 -12.6411C310.458 0.161249 341.096 2.54801 372.42 -4.1674C387.292 -7.37328 402.08 -11.0664 416.913 -14.5124C419.476 -15.1126 423.238 -16.1224 425.97 -15.8823C422.188 -14.7948 417.259 -13.0577 413.471 -12.0479C397.607 -7.71929 381.861 -2.71981 365.828 0.726164C340.353 6.07166 315.25 3.71314 290.754 -6.13754C279.291 -10.7698 267.764 -15.3174 256.001 -18.9328C234.335 -25.5352 213.548 -22.2587 193.837 -10.5792C181.488 -3.25648 170.463 6.02929 160.161 16.3178C152.336 24.1348 144.773 32.2625 137.144 40.3266C128.844 49.0827 120.844 58.199 112.296 66.6445C81.7877 96.7544 46.3568 116.519 5.56639 124.463C-1.90227 125.921 -9.43396 126.969 -17.0001 127.606L-17.0001 130.233C-14.1833 129.978 -11.3579 129.677 -8.52379 129.329C36.257 123.694 75.5869 104.105 110.307 73.4799Z" fill="#00E7CF"/>
                    <path d="M111.103 62.1338C121.535 50.772 131.719 39.1912 142.06 27.7588C152.402 16.3264 162.88 5.43058 174.662 -4.01761C185.544 -12.7738 197.124 -19.9341 210.288 -23.7119H195.891C185.755 -19.2307 176.366 -12.9809 168.096 -5.21099C157.194 4.90097 146.768 15.6626 136.61 26.6572C124.645 39.5867 113.437 53.3423 101.466 66.2647C78.847 90.6902 51.8403 107.263 21.1301 116.62C8.68061 120.355 -4.10221 122.637 -17.0001 123.427L-17.0001 125.439C19.7305 122.85 53.5204 109.961 84.3697 86.7711C93.9539 79.4562 102.902 71.2096 111.103 62.1338Z" fill="#00E7CF"/>
                    <path d="M189.319 36.6266C199.113 28.3914 209.782 21.4548 221.099 15.9649C241.2 6.33309 261.811 4.66659 282.604 12.4342C293.362 16.4733 303.742 21.8823 314.227 26.8536C321.908 30.4973 329.347 34.7412 337.093 38.1942C351.522 44.6343 366.317 45.1215 381.307 40.4751C392.829 36.81 403.762 31.2439 413.719 23.9725C418.583 20.4795 423.403 16.9135 428.18 13.2745V6.21304C425.746 7.9172 423.301 9.59782 420.845 11.2549C410.55 18.1963 399.981 24.5798 388.655 29.3816C367.288 38.4273 346.111 38.6532 325.089 28.0399C315.563 23.224 306.024 18.4364 296.4 13.79C287.142 9.31301 277.583 5.76111 267.562 3.84746C251.659 0.811049 236.265 2.90829 221.379 9.4966C209.187 14.9809 197.753 22.2643 187.402 31.1399C175.666 41.0259 164.19 51.3921 152.656 61.617C123.665 87.2654 92.2473 109.515 58.9279 127.994C51.2601 132.269 43.4706 136.124 35.5594 139.561H48.2021C86.0194 120.029 120.453 94.6857 153.627 67.2661C165.69 57.2672 177.302 46.6468 189.319 36.6266Z" fill="#00E7CF"/>
                    <path d="M148.815 58.7361C161.1 47.4378 173.397 36.1395 185.981 25.279C195.362 17.1623 205.7 10.437 216.723 5.28106C234.191 -2.88901 252.233 -4.90858 270.613 0.458104C279.702 3.1132 288.544 6.85576 297.346 10.5983C306.507 14.4962 315.368 19.2345 324.522 23.1536C338.606 29.1981 353.172 30.4551 368.09 27.4681C381.189 24.8483 393.441 19.6581 405.171 13.0486C412.904 8.65643 420.506 3.98882 428.167 -0.572864V-5.12043C423.421 -2.59714 418.678 -0.069149 413.94 2.46355C402.699 8.44459 391.361 14.129 379.383 18.1117C363.083 23.5207 346.437 25.5474 329.777 20.8233C320.558 18.2105 311.729 13.9666 302.771 10.33C292.932 6.34028 283.301 1.65855 273.306 -1.77331C250.935 -9.45615 229.073 -7.33065 208.28 4.47606C200.445 8.79645 192.962 13.8256 185.909 19.5099C174.401 29.0428 163.258 39.1477 152.408 49.5562C135.736 65.5504 118.607 80.7748 99.6531 93.5772C76.6432 109.112 52.8836 122.812 27.0179 132.006C18.5269 135.007 9.89774 137.529 1.16528 139.561H20.0739C26.2203 137.41 32.3167 134.995 38.3631 132.316C78.8471 114.324 115.452 89.3545 148.815 58.7361Z" fill="#00E7CF"/>
                    <path d="M124.11 70.5359C136.877 59.4988 148.613 46.9931 160.826 35.1934C172.275 24.1493 184.122 13.6914 197.261 5.01286C222.024 -11.3414 248.066 -14.6462 275.405 -4.05402C285.838 -0.0360641 296.074 4.4197 306.279 8.96726C328.956 19.0933 351.992 20.0184 375.517 12.8934C389.157 8.76954 402.139 2.83088 415.068 -3.31257C419.437 -5.38863 423.792 -7.48587 428.18 -9.51956V-12.5277L427.163 -12.1182C413.549 -6.70205 400.02 -1.00348 386.321 4.12312C374.241 8.72104 361.634 11.494 348.855 12.3638C331.251 13.5219 314.481 9.61691 298.18 2.54136C288.055 -1.85791 277.831 -6.08065 267.431 -9.61842C243.254 -17.8379 220.016 -14.8227 198.141 -1.05291C190.828 3.42861 183.86 8.53866 177.302 14.228C165.892 24.3824 154.808 34.951 144.049 45.9338C125.708 64.689 106.812 82.512 84.8978 96.4089C57.852 113.568 29.3261 126.067 -1.74275 131.469C-6.81547 132.345 -11.8947 133.044 -16.987 133.587V137.824C-11.5491 137.062 -6.11563 136.141 -0.686472 135.063C46.246 125.686 87.1408 102.404 124.11 70.5359Z" fill="#00E7CF"/>
                    <path d="M262.841 75.5635C292.43 62.288 321.086 65.2891 349.084 81.0079L349.331 80.9372C348.621 80.1393 348.027 79.0589 347.167 78.5928C342.4 76.0295 337.628 73.4662 332.744 71.1783C307.204 59.1739 281.613 59.1739 255.956 70.8747C244.577 76.1721 233.644 82.5252 223.276 89.8629C202.316 104.456 181.905 119.886 162.045 136.15L157.859 139.561H170.019C189.084 123.762 208.754 108.905 229.027 94.9895C239.838 87.575 250.981 80.8807 262.841 75.5635Z" fill="#00E7CF"/>
                    <path d="M277.903 84.9197C300.352 75.2173 323.107 73.6567 346.26 81.735C347.654 82.1469 349.072 82.4513 350.505 82.6459H350.831C350.329 82.0951 349.834 81.5443 349.331 81.0006L349.084 81.0712C347.297 80.5486 345.452 80.1885 343.737 79.4824C320.047 69.7376 296.383 69.7894 272.745 79.6377C262.065 84.1277 251.789 89.6732 242.048 96.2039C221.779 109.606 202.153 124.059 183.17 139.561H195.846C211.859 126.709 228.219 114.373 245.275 103.11C255.76 96.218 266.486 89.8203 277.903 84.9197Z" fill="#00E7CF"/>
                    <path d="M323.309 108.223C335.046 101.543 347.284 96.3948 360.299 93.5631C365.169 92.5039 370.118 91.8401 375.36 90.9433L370.007 89.6017L369.935 89.5522C366.714 89.983 363.493 90.4844 360.259 90.8162C346.73 92.2285 333.918 96.4018 321.529 102.298C307.707 108.879 294.881 117.381 282.167 126.116C275.786 130.494 269.483 134.967 263.258 139.533H276.103C284.597 133.413 293.179 127.394 301.851 121.477C308.795 116.753 316.02 112.389 323.309 108.223Z" fill="#00E7CF"/>
                    <path d="M370.007 89.6016L370.111 89.5308H369.935L370.007 89.6016Z" fill="#00E7CF"/>
                    <path d="M293.264 93.6194C309.623 85.8871 326.817 82.4341 344.722 84.5384C349.938 85.1527 355.069 86.1272 360.24 86.9534H360.422C357.638 84.4536 354.254 83.4792 350.838 82.6177L350.935 82.7236L350.512 82.6459C348.979 82.773 347.408 83.1473 345.947 82.8366C330.888 79.4772 315.313 79.9607 300.456 84.2489C287.363 88.0197 275.125 94.0007 263.454 101.323C244.808 113.028 226.754 125.804 209.369 139.596H222.24C236.258 128.736 250.642 118.412 265.527 108.95C274.481 103.243 283.743 98.1236 293.264 93.6194Z" fill="#00E7CF"/>
                    <path d="M360.52 86.9962L360.429 86.9182H360.246L360.52 86.9962Z" fill="#00E7CF"/>
                    <path d="M350.929 82.6895L350.831 82.5825H350.505L350.929 82.6895Z" fill="#00E7CF"/>
                    <path d="M94.8802 66.9709C100.455 60.9898 105.749 54.6981 111.142 48.5194C124.391 33.3232 137.412 17.894 150.915 2.98733C160.064 -7.13097 170.505 -15.7773 181.919 -22.688C182.499 -23.034 183.086 -23.3942 183.672 -23.7119H173.651C171.573 -22.2996 169.508 -20.8003 167.457 -19.2138C164.849 -17.1801 162.299 -15.1182 159.809 -12.9574C146.357 -1.22834 134.712 12.4002 123.184 26.2053C111.755 39.8903 100.696 53.9849 88.6991 67.0627C59.2212 99.2204 23.8295 116.697 -17.0001 120.023V121.972C-12.9488 121.638 -8.90413 121.167 -4.86595 120.56C33.8576 114.77 67.1107 96.763 94.8802 66.9709Z" fill="#00E7CF"/>
                </g>
            </svg> 