<svg width="1440" height="640" viewBox="0 0 1440 640" fill="none" xmlns="http://www.w3.org/2000/svg">
<g opacity="0.1">
<mask id="mask0_1_179" style="mask-type:alpha" maskUnits="userSpaceOnUse" x="0" y="0" width="2029" height="640">
<path fill-rule="evenodd" clip-rule="evenodd" d="M1388.77 136.548L1377.08 240.508H1296.27V463.52C1296.27 516.007 1312.06 541.124 1348.68 541.124C1360.41 541.382 1372.14 540.122 1383.63 537.369V633.482C1366.68 637.623 1349.37 639.55 1332.04 639.227C1241.31 639.227 1196.37 584.975 1196.37 476.097V240.583H1175.64C1169.66 240.583 1163.32 240.746 1156.7 240.916C1149.45 241.102 1141.86 241.296 1134.04 241.296C1064.96 241.296 1020.84 293.82 1020.84 373.001V386.029V625.786H921.828V145.221H1020.88V212.8V216.555C1040.66 166.471 1085.76 137.599 1143.97 136.999V136.548H1196.37V0H1296.4V136.548H1388.77ZM645.255 134.636C714.399 134.636 765.168 168.013 779.317 214.755V145.299H879.086V625.865H779.252V556.22C765.102 602.963 714.333 636.377 645.255 636.377C586.298 636.402 536.391 612.549 495.536 564.818C466.336 529.887 446.852 485.795 439.56 438.144C432.24 485.973 412.45 530.138 382.797 564.818C342.87 612.537 292.789 636.377 233.831 636.377C164.786 636.377 114.017 602.963 99.8671 556.22V625.865H0V0.340332H99.8016V214.755C113.951 168.013 164.72 134.636 233.766 134.636C292.854 134.636 342.804 158.477 382.731 207.096C412.476 241.341 432.295 285.256 439.494 332.87C446.667 285.437 466.179 241.596 495.471 207.096C536.25 158.477 586.298 134.636 645.255 134.636ZM220.533 532.38C256.333 532.38 285.452 518.075 308.74 490.405C332.88 462.773 344.54 427.857 344.54 385.694C344.54 343.532 332.88 308.241 308.74 280.571C285.452 252.9 256.301 238.596 220.533 238.596C203.607 238.276 186.794 241.823 171.077 249.03C155.359 256.237 141.05 266.959 128.986 280.571C104.813 308.241 92.3665 343.532 92.3665 385.507C92.3665 427.481 104.813 462.773 128.986 490.405C141.05 504.017 155.359 514.739 171.077 521.946C186.794 529.152 203.607 532.699 220.533 532.38ZM658.651 532.38C694.386 532.38 725.208 518.113 749.347 490.405C774.306 462.773 786.785 427.857 786.785 385.694C786.785 343.532 774.306 308.241 749.347 280.571C725.208 252.9 694.419 238.596 658.651 238.596C642.087 238.199 625.629 241.721 610.306 248.943C594.982 256.166 581.123 266.932 569.593 280.571C546.305 308.241 534.645 343.532 534.645 385.507C534.645 427.481 546.305 462.773 569.593 490.405C581.123 504.044 594.982 514.81 610.306 522.032C625.629 529.254 642.087 532.777 658.651 532.38ZM1531.58 468.476V0H1431.71V483.719C1431.71 587.717 1475.83 639.227 1564.04 639.227C1580.01 639.752 1595.98 637.82 1611.5 633.483V531.438C1601.72 534.31 1591.63 535.574 1581.53 535.192C1544.88 535.23 1531.58 515.219 1531.58 468.476ZM1970.67 201.349C2009.78 248.129 2028.91 305.347 2028.91 374.053C2028.91 387.709 2028.16 400.51 2027.47 412.422L2027.37 414.112H1701.17C1704.48 490.402 1753.58 540.036 1827.67 540.036C1870.81 540.036 1908.24 521.864 1940.7 484.695L2000.48 551.074C1953.05 608.291 1894.82 636.9 1824.07 636.9C1758.56 636.9 1704.35 614.073 1663.57 569.32C1622.79 524.567 1601.99 464.459 1601.99 389.108V385.353C1601.99 309.176 1622.79 248.129 1663.57 201.387C1705.2 154.644 1757.61 131.742 1821.71 131.742C1882.47 131.742 1932.48 154.644 1970.67 201.349ZM1740.97 259.73C1718.5 279.754 1706.02 304.558 1703.53 334.143L1927.41 333.955C1927.41 305.309 1916.56 280.53 1895.76 260.481C1875.46 239.593 1848.98 228.344 1821.71 229.019C1792.54 228.49 1764.08 239.317 1740.97 259.73Z" fill="black"/>
</mask>
<g mask="url(#mask0_1_179)">
<path d="M2034.49 462.096C2035.54 461.642 2036.5 460.932 2037.29 460.013C2038.08 459.095 2038.69 457.991 2039.07 456.778L1993.2 467.558C1995.52 464.9 1998.05 462.494 2000.76 460.371C2018.24 450.445 2035.12 439.197 2051.29 426.702V368.347C2045.96 372.971 2040.62 377.558 2035.27 382.11C2010.75 402.024 1984.35 418.695 1956.56 431.805C1897 461.198 1835.4 463.677 1775.27 434.643C1735.9 415.599 1698.09 392.027 1660.25 369.03C1612.73 340.284 1566.52 308.555 1518.65 280.599C1467.36 250.167 1411.84 230.179 1354.58 221.526C1285.61 211.536 1219.34 223.43 1154.64 250.739C1087.43 279.054 1025.95 319.91 967.646 366.73C844.342 465.665 721.593 565.355 599.397 665.799C572.229 687.934 544.998 709.805 517.704 731.413H572.908C598.269 710.572 623.536 689.623 648.959 668.926C755.543 582.256 861.751 495.298 968.711 409.383C1021.69 366.802 1076.99 328.354 1136.36 298.17C1201.47 265.076 1269.18 245.313 1341.1 248.547C1406.74 251.53 1468.53 272.335 1527.43 304.423C1559.19 321.707 1590.29 340.787 1621.01 360.406C1689.06 403.957 1753.77 454.874 1831.54 483.117C1829.11 485.055 1826.49 486.659 1823.74 487.896C1746.81 501.011 1675.4 532.453 1606.84 573.344C1584.71 586.567 1562.64 600.078 1541.48 615.206C1488.5 653.127 1436.04 691.863 1384.11 731.413H1442.23C1483.04 700.055 1524.05 668.914 1565.24 637.987C1641.98 580.207 1722.79 530.872 1812.04 502.7C1840.46 493.811 1869.48 487.622 1898.78 484.195C1888.06 488.004 1877.34 491.705 1866.65 495.586C1794.17 521.996 1726.81 560.947 1662.89 607.265C1617.31 640.215 1572.45 674.1 1528.56 709.709C1519.59 716.896 1510.58 724.083 1501.51 731.269H1553.07C1582.67 707.673 1612.28 684.113 1641.92 660.589C1693.36 619.698 1747.59 583.154 1801.79 547.437C1850.4 516.063 1902.42 492.211 1956.5 476.505C1961 474.927 1965.75 474.51 1970.41 475.283C1969 476.792 1967.43 478.095 1965.74 479.164C1883.11 515.097 1807.75 566.194 1735.65 623.758C1691.76 658.9 1648.25 695.049 1604.92 731.269H1652.7C1704.08 688.15 1754.71 644.06 1806.68 601.911C1877.47 544.849 1952.48 495.801 2034.49 462.096Z" fill="white"/>
<path d="M93.4783 -65.4693C102.569 -76.848 111.754 -88.1668 121.033 -99.4258H86.7071C60.1551 -66.8347 33.8539 -33.9562 7.17652 -1.43703C-24.7674 37.5141 -55.8022 77.5792 -89 115.093V158.212C-80.4733 149.229 -72.1137 139.959 -63.9214 130.4C-9.46941 67.4102 41.2207 0.0721512 93.4783 -65.4693Z" fill="white"/>
<path d="M6.95708 148.116C58.8071 84.227 108.055 17.5715 158.651 -47.6466C172.288 -65.1099 185.987 -82.4655 200 -99.4258H162.695C119.56 -45.5265 77.3653 9.4148 34.857 64.0327C-4.10887 114.159 -44.172 162.848 -89 205.967V248.548C-54.6294 218.193 -22.532 184.599 6.95708 148.116Z" fill="white"/>
<path d="M104.983 242.08C159.874 173.484 211.128 101.043 263.699 30.076C296.396 -14.1214 329.311 -58.1032 364.703 -99.2822H325.487C291.004 -58.714 258.778 -15.7024 226.834 27.5607C187.554 80.7773 148.463 134.281 108.745 186.959C50.8133 263.496 -14.7986 327.097 -89 375.858V411.503C-16.0077 368.803 49.6972 311.417 104.983 242.08Z" fill="white"/>
<path d="M197.617 332.882C249.561 272.515 295.455 205.033 343.606 140.462C390.252 78.0823 435.457 14.2657 483.137 -47.0357C497.39 -65.1938 512.145 -82.6571 527.401 -99.4258H488.561C468.184 -76.8959 448.842 -53.1443 430.347 -28.4225C372.885 48.4378 317.493 127.382 260.502 204.638C231.567 243.805 202.539 283.043 170.72 319.228C94.4815 406.257 7.90797 468.936 -89 507.264V531.662C18.2424 494.831 114.325 429.469 197.617 332.882Z" fill="white"/>
<path d="M377.212 374.528C434.861 306.04 488.31 232.737 544.455 162.309C592.794 101.762 640.474 40.1372 691.948 -16.6725C719.742 -46.9189 749.585 -74.5901 781.197 -99.4258H736.4C705.544 -73.3279 676.758 -44.1569 650.38 -12.2528C597.903 50.9171 547.903 116.818 497.213 181.784C446.773 246.176 399.124 313.766 345.832 374.851C225.611 512.438 79.8105 591.311 -89 613.553V624.333C-27.2957 618.065 33.4809 602.963 91.9109 579.381C200.125 535.327 297.273 469.606 377.212 374.528Z" fill="white"/>
<path d="M487.526 -1.1854C441.538 59.9004 397.839 123.214 351.976 184.444C307.368 243.948 264.201 305.501 215.329 359.975C130.878 454.797 25.7832 521.916 -89 554.336L-89 572.59C53.7287 537.484 178.338 455.737 283.01 323.827C334.202 259.148 381.914 190.876 430.598 123.897C482.604 52.0311 534.486 -19.583 594.079 -83.3638C599.157 -88.7777 604.288 -94.1317 609.471 -99.4258H570.38C541.059 -68.6243 513.39 -35.8176 487.526 -1.1854Z" fill="white"/>
<path d="M563.044 0.359673C504.266 76.9325 447.839 155.841 389.845 233.168C357.682 276 325.926 319.407 291.286 359.472C183.542 483.944 56.5187 560.013 -89 588.832V602.738C71.2524 576.399 212.79 494.616 332.478 350.489C383.607 288.936 429.657 221.85 478.749 158.069C529.125 92.6352 579.345 26.9859 631.603 -36.4715C650.261 -59.0645 670.301 -80.1027 691.572 -99.4258H652.073C620.206 -68.8329 590.442 -35.4725 563.044 0.359673Z" fill="white"/>
<path d="M155.172 285.63C202.539 228.209 245.11 165.363 290.314 105.535C342.321 36.7952 393.983 -32.3395 447.557 -99.2822H410.503C382.102 -66.7271 354.766 -32.8425 328.183 1.58108C272.665 73.4466 220.627 148.905 166.488 222.352C95.4533 318.472 11.1264 394.937 -89 447.687V477.906C1.91001 436.008 83.4155 372.335 155.172 285.63Z" fill="white"/>
<path d="M50.6879 201.153C108.87 129.97 161.786 53.2889 219.122 -18.8284C240.753 -46.0894 262.811 -72.9552 285.298 -99.4258H242.947C237.618 -92.886 232.32 -86.2384 227.085 -79.5549C177.46 -16.2053 130.438 49.6597 80.2807 112.327C41.3461 160.836 1.91 209.633 -41.8208 252.141C-57.2024 266.994 -72.9288 280.971 -89 294.075V334.787C-37.727 297.142 9.20509 252.244 50.6879 201.153Z" fill="white"/>
<path d="M1582.03 493.501C1639.49 476.648 1697.7 469.354 1756.98 477.008C1761.72 477.385 1766.48 477.385 1771.21 477.008C1750.74 462.635 1730.71 447.507 1709.71 434.284C1653.28 398.602 1597.51 360.478 1539.08 329.288C1414.19 262.633 1287.35 262.992 1162.24 329.288C1115.94 353.83 1070.11 381.175 1027.79 413.622C925.155 492.243 824.464 574.17 723.523 655.666C693.052 680.244 663.272 705.972 633.365 731.556H687.535C719.448 704.678 751.423 677.908 783.774 651.785C875.729 577.404 968.604 504.341 1062.4 432.595C1116.74 390.798 1175.8 357.698 1237.95 334.211C1327.76 300.542 1417.7 299.464 1507.89 332.127C1593.53 363.101 1669.08 416.784 1745.38 468.671L1743.6 473.379L1726.01 463.389H1725.73L1726.17 463.785L1724.85 463.569C1719.68 464.647 1714.41 466.695 1709.39 466.012C1613.81 453.58 1523.66 476.792 1436.66 520.127C1361.55 557.569 1293.09 607.875 1224.5 657.678C1191.93 681.394 1159.98 706.08 1128.48 731.412H1191.74C1246.95 688.293 1303.25 647.006 1360.33 607.013C1429.83 558.324 1502.5 516.821 1582.03 493.501Z" fill="white"/>
<path d="M932.549 347.973C985.841 304.603 1040.95 264.394 1100.86 233.743C1151.55 207.836 1204.06 190.157 1259.76 186.024C1333.71 180.563 1403.96 198.062 1470.55 233.42C1520.42 259.938 1568.32 291.271 1617.2 320.233C1655.85 343.123 1693.84 367.737 1733.56 387.895C1802.31 422.786 1872.09 420.63 1940.18 384.805C1967.13 371.184 1992.8 354.423 2016.76 334.786C2028.36 324.941 2039.93 314.915 2051.24 304.639V248.979C2014.81 284.606 1974.4 314.525 1931.09 337.948C1886.23 361.772 1839.42 374.779 1789.61 371.078C1749.27 368.096 1711.74 353.435 1676.13 332.846C1632.24 307.405 1589.51 278.947 1545.35 253.794C1501.83 229.072 1458.13 204.027 1412.74 184.515C1310.58 140.533 1208.07 144.27 1107.47 192.708C1078.04 207.081 1048.48 222.137 1021.64 241.648C967.628 280.959 915.057 322.713 862.611 364.898C736.403 466.588 611.355 570.218 484.614 671.081C458.323 691.994 431.698 712.104 404.738 731.412H458.72C489.713 708.128 520.361 684.173 550.665 659.547C678.043 555.845 805.338 451.987 932.549 347.973Z" fill="white"/>
<path d="M838.119 343.088C863.354 320.415 889.06 298.639 914.985 277.295C965.863 235.038 1018.72 196.447 1076.21 166.73C1180.94 112.651 1287.94 104.602 1395.55 151.423C1448.03 174.276 1498.19 204.244 1548.97 231.984C1588.25 253.544 1626.34 277.798 1665.96 298.352C1742.58 338.13 1820.45 337.124 1896.84 298.352C1930.77 281.196 1963.3 260.596 1994.02 236.799C2013.62 221.564 2032.61 205.286 2051.23 188.398V136.654C2035.29 150.74 2019.26 164.682 2003.15 178.48C1966.06 209.985 1925.61 235.946 1882.8 255.736C1798.66 295.262 1714.59 297.274 1631.2 253.508C1593.99 233.96 1557.84 211.754 1520.73 191.919C1476.12 168.06 1431.79 143.05 1385.93 122.82C1315.96 91.9899 1243.26 82.6474 1168.87 98.3501C1108.2 111.052 1050.33 137.407 998.591 175.893C942.164 217.647 886.364 261.018 834.012 309.024C715.328 417.865 589.496 514.847 463.664 611.974C407.053 655.673 348.281 695.578 287.643 731.486H345.199C382.503 707.004 419.243 680.821 455.419 652.937C584.982 552.756 714.826 453.366 838.119 343.088Z" fill="white"/>
<path d="M523.075 395.153C577.527 344.272 626.775 286.025 677.591 230.185C740.287 161.086 802.984 91.5203 874.489 33.9919C917.656 -0.755211 963.393 -29.8608 1013.55 -49.3364C1102.11 -83.7601 1190.26 -76.9328 1277.5 -43.8746C1326.69 -25.2614 1374.93 -3.45018 1423.59 17.2112C1489.77 45.4766 1559.85 59.8632 1630.48 59.6838C1711.99 59.3245 1790.55 39.7052 1868.01 12.9711C1929.23 -8.33704 1990.27 -30.1483 2051.46 -51.708V-80.4543C2026.18 -70.5616 1999.25 -67.5356 1972.78 -71.6148C1960.94 -72.9406 1949.05 -73.4206 1937.16 -73.0521C1937.16 -71.7585 1925.57 -69.9259 1925.63 -68.6324C1949.01 -65.6499 2001.27 -61.841 2002.46 -59.8288C1922.59 -43.5512 1840.96 -25.2614 1760.86 -10.493C1614.53 16.5285 1471.36 2.73027 1332.05 -57.601C1298.51 -71.9741 1264.74 -86.3472 1230.64 -98.9956H1195.5C1203.17 -96.8396 1210.82 -94.4441 1218.47 -91.809C1260.14 -77.4359 1301.42 -61.4099 1341.83 -43.0841C1485.37 22.0621 1632.68 34.2074 1783.28 0.0353012C1854.78 -16.2782 1925.88 -35.0711 1997.2 -52.6063C2009.52 -55.6606 2027.6 -60.799 2040.74 -59.5773C2022.56 -54.0436 1998.86 -45.2041 1980.64 -40.0657C1904.37 -18.0389 1828.67 7.40154 1751.58 24.9368C1629.1 52.1379 1508.41 40.1364 1390.64 -9.98996C1335.53 -33.5619 1280.1 -56.7027 1223.55 -75.1003C1119.38 -108.697 1019.44 -92.0246 924.678 -32.5917C865.304 4.67064 812.294 51.9223 762.764 104.276C725.146 144.054 688.782 185.413 652.105 226.448C612.198 271.005 573.734 317.394 532.636 360.37C385.958 513.587 215.611 614.164 19.4964 654.588C-16.4119 662.003 -52.6232 667.34 -89 670.578L-89 683.945C-75.4575 682.651 -61.8733 681.118 -48.2472 679.346C167.053 650.671 356.146 550.994 523.075 395.153Z" fill="white"/>
<path d="M526.9 337.409C577.057 279.594 626.023 220.664 675.741 162.488C725.46 104.313 775.836 48.8689 832.483 0.79084C884.803 -43.7659 940.477 -80.2017 1003.77 -99.4258H934.553C885.819 -76.6224 840.675 -44.8197 800.915 -5.2818C748.501 46.174 698.375 100.936 649.534 156.883C592.01 222.676 538.122 292.673 480.567 358.43C371.82 482.722 241.975 567.056 94.3247 614.667C34.4691 633.675 -26.9889 645.287 -89 649.306L-89 659.547C87.5953 646.372 250.053 580.782 398.372 462.779C444.451 425.556 487.472 383.593 526.9 337.409Z" fill="white"/>
<path d="M902.949 207.621C950.039 165.715 1001.33 130.418 1055.74 102.482C1152.39 53.4692 1251.48 44.989 1351.45 84.5151C1403.17 105.069 1453.08 132.593 1503.49 157.89C1540.42 176.431 1576.18 198.027 1613.43 215.598C1682.8 248.369 1753.93 250.848 1826 227.204C1881.4 208.554 1933.96 180.23 1981.83 143.229C2005.22 125.455 2028.39 107.308 2051.36 88.7911V52.8583C2039.66 61.5301 2027.9 70.0821 2016.09 78.5143C1966.6 113.836 1915.78 146.32 1861.33 170.754C1758.6 216.784 1656.78 217.934 1555.71 163.927C1509.91 139.42 1464.05 115.058 1417.78 91.4142C1373.27 68.6328 1327.31 50.5586 1279.13 40.8208C1202.67 25.3697 1128.66 36.0418 1057.09 69.5671C998.469 97.4745 943.496 134.537 893.732 179.701C837.305 230.007 782.132 282.756 726.677 334.787C587.294 465.302 436.241 578.523 276.046 672.555C239.18 694.307 201.729 713.926 163.693 731.413H224.478C406.298 632.023 571.848 503.06 731.348 363.533C789.342 312.652 845.174 258.61 902.949 207.621Z" fill="white"/>
<path d="M708.224 320.126C767.284 262.634 826.407 205.141 886.909 149.876C932.011 108.573 981.718 74.3511 1034.72 48.1147C1118.7 6.54048 1205.44 -3.7363 1293.81 23.5726C1337.51 37.0834 1380.02 56.1277 1422.34 75.1721C1466.38 95.007 1508.98 119.118 1553 139.061C1620.71 169.819 1690.74 176.215 1762.47 161.016C1825.44 147.685 1884.35 121.274 1940.74 87.6408C1977.92 65.2906 2014.47 41.539 2051.31 18.3264V-4.81429C2028.49 8.0257 2005.69 20.8896 1982.91 33.7775C1928.86 64.2126 1874.35 93.1385 1816.76 113.405C1738.39 140.929 1658.36 151.242 1578.26 127.203C1533.94 113.908 1491.49 92.3121 1448.42 73.8067C1401.11 53.5046 1354.81 29.6812 1306.76 12.2179C1199.2 -26.877 1094.09 -16.0612 994.12 44.0184C956.453 66.0031 920.474 91.5943 886.564 120.519C831.234 169.029 777.66 220.448 725.497 273.413C645.339 354.801 562.987 432.272 471.858 497.418C361.23 576.471 246.996 646.18 122.638 692.965C81.8142 708.237 40.3264 721.071 -1.65802 731.413H89.252C118.803 720.465 148.114 708.176 177.184 694.546C371.825 602.989 547.814 475.931 708.224 320.126Z" fill="white"/>
<path d="M589.443 380.17C650.823 324.007 707.25 260.37 765.965 200.326C821.013 144.127 877.973 90.9108 941.14 46.7494C1060.2 -36.4709 1185.41 -53.2875 1316.85 0.611702C1367.01 21.0575 1416.22 43.7311 1465.28 66.8718C1574.31 118.399 1685.07 123.107 1798.17 86.8504C1863.75 65.8657 1926.16 35.6462 1988.33 4.38464C2009.33 -6.1796 2030.27 -16.8516 2051.37 -27.2003V-42.5077L2046.48 -40.4236C1981.02 -12.8631 1915.98 16.1347 1850.11 42.2219C1792.04 65.6189 1731.42 79.7295 1669.99 84.1555C1585.35 90.0484 1504.72 70.1776 1426.35 34.1729C1377.66 11.7868 1328.51 -9.70101 1278.51 -27.7033C1162.27 -69.5291 1050.55 -54.1858 945.372 15.8831C910.214 38.6878 876.71 64.6908 845.182 93.6417C790.323 145.313 737.031 199.092 685.306 254.98C597.124 350.417 506.276 441.112 400.915 511.828C270.882 599.144 133.733 662.745 -15.6413 690.234C-40.0302 694.69 -64.4505 698.247 -88.9335 701.014V722.573C-62.7891 718.693 -36.6655 714.01 -10.5628 708.524C215.082 660.805 411.698 542.335 589.443 380.17Z" fill="white"/>
<path d="M1256.44 405.754C1398.7 338.2 1536.48 353.471 1671.09 433.458L1672.28 433.098C1668.86 429.038 1666.01 423.54 1661.87 421.169C1638.95 408.125 1616.01 395.082 1592.53 383.439C1469.74 322.353 1346.69 322.353 1223.34 381.894C1168.63 408.851 1116.07 441.179 1066.22 478.518C965.447 552.779 867.317 631.292 771.83 714.057L751.704 731.413H810.169C901.831 651.019 996.398 575.416 1093.87 504.605C1145.85 466.875 1199.42 432.811 1256.44 405.754Z" fill="white"/>
<path d="M1328.85 453.365C1436.79 403.993 1546.19 396.052 1657.51 437.159C1664.21 439.255 1671.03 440.804 1677.92 441.794H1679.48C1677.07 438.991 1674.69 436.189 1672.27 433.422L1671.08 433.781C1662.49 431.122 1653.62 429.29 1645.38 425.696C1531.48 376.109 1417.71 376.372 1304.06 426.487C1252.71 449.335 1203.3 477.553 1156.47 510.785C1059.02 578.986 964.66 652.528 873.394 731.413H934.335C1011.33 666.015 1089.98 603.24 1171.99 545.928C1222.39 510.857 1273.96 478.302 1328.85 453.365Z" fill="white"/>
<path d="M1547.16 571.944C1603.58 537.952 1662.42 511.757 1725 497.348C1748.41 491.958 1772.21 488.58 1797.41 484.017L1771.67 477.189L1771.33 476.938C1755.84 479.13 1740.36 481.681 1724.81 483.37C1659.76 490.556 1598.16 511.793 1538.6 541.796C1472.14 575.286 1410.48 618.549 1349.35 662.998C1318.67 685.276 1288.37 708.033 1258.44 731.27H1320.2C1361.03 700.128 1402.3 669.501 1443.99 639.39C1477.38 615.351 1512.11 593.144 1547.16 571.944Z" fill="white"/>
<path d="M1402.71 497.635C1481.37 458.288 1564.03 440.717 1650.12 451.425C1675.19 454.551 1699.87 459.51 1724.72 463.714H1725.6C1712.22 450.994 1695.95 446.035 1679.52 441.651L1679.99 442.19L1677.95 441.795C1670.59 442.442 1663.03 444.346 1656.01 442.765C1583.6 425.671 1508.72 428.131 1437.29 449.952C1374.34 469.14 1315.5 499.575 1259.39 536.837C1169.75 596.395 1082.94 661.406 999.357 731.593H1061.24C1128.64 676.328 1197.79 623.794 1269.36 575.644C1312.41 546.605 1356.94 520.555 1402.71 497.635Z" fill="white"/>
<path d="M448.905 362.023C475.708 331.588 501.163 299.572 527.088 268.131C590.787 190.804 653.39 112.29 718.312 36.4362C762.3 -15.0519 812.497 -59.0495 867.373 -94.2155C870.163 -95.9762 872.984 -97.8088 875.806 -99.4258H827.624C817.634 -92.2392 807.707 -84.6095 797.843 -76.5366C785.303 -66.1879 773.046 -55.6955 761.071 -44.7001C696.4 14.9843 640.412 84.3346 584.988 154.583C530.034 224.221 476.868 295.943 419.187 362.491C277.461 526.129 107.303 615.062 -89 631.987V641.904C-69.5223 640.203 -50.0759 637.808 -30.6609 634.718C155.517 605.253 315.393 513.624 448.905 362.023Z" fill="white"/>
</g>
</g>
</svg>
