<svg width="1440" height="225" viewBox="0 0 1440 225" fill="none" xmlns="http://www.w3.org/2000/svg">
<g opacity="0.2">
<mask id="mask0_1_738" style="mask-type:alpha" maskUnits="userSpaceOnUse" x="-322" y="0" width="2889" height="794">
<path fill-rule="evenodd" clip-rule="evenodd" d="M1655.05 169.588L1638.4 298.702H1523.37V575.675C1523.37 640.861 1545.84 672.056 1597.97 672.056C1614.68 672.376 1631.37 670.812 1647.73 667.393V786.761C1623.59 791.905 1598.96 794.298 1574.29 793.896C1445.13 793.896 1381.15 726.518 1381.15 591.295V298.795H1351.64C1343.13 298.795 1334.1 298.997 1324.67 299.208C1314.35 299.439 1303.55 299.681 1292.42 299.681C1194.08 299.681 1131.27 364.914 1131.27 463.253V479.434V777.203H990.312V180.359H1131.32V264.29V268.953C1159.48 206.75 1223.69 170.893 1306.55 170.147V169.588H1381.15V0H1523.55V169.588H1655.05ZM596.58 167.216C695.013 167.216 767.287 208.669 787.43 266.721V180.459H929.461V777.303H787.337V690.807C767.194 748.859 694.919 790.359 596.58 790.359C512.649 790.39 441.603 760.765 383.442 701.485C341.872 658.101 314.135 603.341 303.754 544.16C293.334 603.562 265.16 658.413 222.946 701.485C166.106 760.75 94.8116 790.359 10.8804 790.359C-87.4124 790.359 -159.686 748.859 -179.83 690.807V777.303H-322V0.426392H-179.923V266.721C-159.78 208.669 -87.5056 167.216 10.7871 167.216C94.9048 167.216 166.013 196.825 222.853 257.209C265.197 299.739 293.412 354.281 303.66 413.414C313.872 354.504 341.649 300.056 383.348 257.209C441.401 196.825 512.649 167.216 596.58 167.216ZM-8.05075 661.198C42.9141 661.198 84.3668 643.432 117.52 609.067C151.885 574.749 168.484 531.384 168.484 479.021C168.484 426.657 151.885 382.826 117.52 348.461C84.3668 314.096 42.8675 296.33 -8.05075 296.33C-32.1469 295.933 -56.0809 300.339 -78.4567 309.289C-100.832 318.239 -121.202 331.556 -138.377 348.461C-172.789 382.826 -190.508 426.657 -190.508 478.787C-190.508 530.918 -172.789 574.749 -138.377 609.067C-121.202 625.973 -100.832 639.289 -78.4567 648.239C-56.0809 657.189 -32.1469 661.595 -8.05075 661.198ZM615.651 661.198C666.523 661.198 710.4 643.479 744.765 609.067C780.296 574.749 798.062 531.384 798.062 479.021C798.062 426.657 780.296 382.826 744.765 348.461C710.4 314.096 666.569 296.33 615.651 296.33C592.07 295.837 568.641 300.212 546.826 309.181C525.012 318.151 505.282 331.523 488.868 348.461C455.716 382.826 439.116 426.657 439.116 478.787C439.116 530.918 455.716 574.749 488.868 609.067C505.282 626.006 525.012 639.377 546.826 648.347C568.641 657.316 592.07 661.691 615.651 661.198ZM1858.35 581.83V0H1716.18V600.761C1716.18 729.921 1778.98 793.896 1904.55 793.896C1927.29 794.547 1950.02 792.147 1972.12 786.762V660.025C1958.19 663.593 1943.82 665.163 1929.45 664.688C1877.28 664.735 1858.35 639.882 1858.35 581.83ZM2483.45 250.069C2539.12 308.168 2566.35 379.23 2566.35 464.56C2566.35 481.516 2565.29 497.41 2564.3 512.202L2564.16 514.312H2099.79C2104.5 609.061 2174.4 670.704 2279.87 670.704C2341.28 670.704 2394.57 648.136 2440.78 601.974L2525.88 684.413C2458.36 755.474 2375.46 791.005 2274.74 791.005C2181.48 791.005 2104.31 762.655 2046.26 707.074C1988.21 651.493 1958.6 576.841 1958.6 483.258V478.595C1958.6 383.986 1988.21 308.168 2046.26 250.115C2105.52 192.063 2180.13 163.62 2271.38 163.62C2357.88 163.62 2429.08 192.063 2483.45 250.069ZM2156.44 322.576C2124.46 347.444 2106.69 378.25 2103.15 414.994L2421.85 414.76C2421.85 379.183 2406.42 348.408 2376.81 323.509C2347.91 297.566 2310.21 283.596 2271.38 284.434C2229.86 283.777 2189.34 297.224 2156.44 322.576Z" fill="red"/>
</mask>
<g mask="url(#mask0_1_738)">
<path d="M2243 485.103C2244.5 484.539 2245.85 483.656 2246.98 482.516C2248.1 481.376 2248.97 480.005 2249.51 478.498L2184.22 491.886C2187.52 488.585 2191.12 485.597 2194.98 482.961C2219.86 470.633 2243.89 456.663 2266.92 441.145V368.67C2259.33 374.412 2251.73 380.11 2244.11 385.763C2209.21 410.495 2171.61 431.2 2132.05 447.482C2047.26 483.987 1959.57 487.066 1873.97 451.007C1817.92 427.355 1764.1 398.08 1710.24 369.518C1642.58 333.817 1576.8 294.411 1508.66 259.691C1435.63 221.895 1356.6 197.071 1275.08 186.324C1176.9 173.917 1082.56 188.689 990.445 222.606C894.765 257.772 807.251 308.513 724.244 366.662C548.711 489.536 373.966 613.346 200.009 738.094C161.332 765.584 122.566 792.747 83.7106 819.583H162.299C198.402 793.7 234.372 767.682 270.565 741.977C422.297 634.336 573.494 526.338 725.762 419.635C801.182 366.751 879.904 319 964.428 281.514C1057.12 240.412 1153.51 215.867 1255.89 219.883C1349.34 223.587 1437.3 249.427 1521.15 289.279C1566.36 310.744 1610.63 334.441 1654.36 358.808C1751.25 412.896 1843.36 476.133 1954.08 511.21C1950.62 513.616 1946.89 515.608 1942.97 517.145C1833.45 533.434 1731.79 572.483 1634.19 623.268C1602.69 639.691 1571.27 656.471 1541.14 675.259C1465.72 722.355 1391.05 770.464 1317.12 819.583H1399.86C1457.96 780.639 1516.33 741.962 1574.97 703.553C1684.22 631.792 1799.27 570.519 1926.32 535.531C1966.78 524.492 2008.08 516.805 2049.81 512.548C2034.54 517.279 2019.28 521.875 2004.06 526.695C1900.88 559.496 1804.98 607.872 1713.99 665.396C1649.1 706.319 1585.24 748.403 1522.76 792.628C1510 801.554 1497.16 810.479 1484.25 819.405H1557.66C1599.78 790.1 1641.94 760.839 1684.13 731.623C1757.36 680.837 1834.57 635.452 1911.73 591.092C1980.93 552.127 2054.98 522.504 2131.96 502.998C2138.38 501.038 2145.14 500.52 2151.78 501.481C2149.77 503.354 2147.53 504.973 2145.13 506.3C2027.49 550.928 1920.21 614.388 1817.57 685.88C1755.09 729.526 1693.14 774.421 1631.47 819.405H1699.48C1772.63 765.852 1844.7 711.095 1918.69 658.747C2019.46 587.879 2126.25 526.963 2243 485.103Z" fill="red"/>
<path d="M-371.974 324.628C-298.027 249.654 -232.692 165.844 -164.145 85.6492C-97.7399 8.17641 -33.3875 -71.0814 34.4904 -147.215C54.7809 -169.767 75.7854 -191.456 97.504 -212.282H42.2109C13.2033 -184.301 -14.3317 -154.802 -40.6618 -124.098C-122.463 -28.641 -201.32 69.4049 -282.452 165.353C-323.643 213.997 -364.967 262.73 -410.264 307.669C-518.797 415.756 -642.043 493.601 -780 541.203V571.505C-627.33 525.762 -490.548 444.585 -371.974 324.628Z" fill="red"/>
<path d="M-116.305 376.35C-34.2354 291.291 41.8539 200.252 121.781 112.782C190.596 37.5857 258.474 -38.9498 331.752 -109.505C371.319 -147.07 413.803 -181.437 458.805 -212.282H395.033C351.106 -179.869 310.128 -143.64 272.576 -104.016C197.87 -25.5617 126.69 56.2845 54.528 136.97C-17.2771 216.942 -85.1104 300.886 -160.977 376.752C-332.122 547.63 -539.683 645.586 -780 673.21V686.599C-692.158 678.814 -605.637 660.058 -522.457 630.77C-368.404 576.057 -230.104 494.434 -116.305 376.35Z" fill="red"/>
<path d="M40.7383 -90.2711C-24.7297 -14.4049 -86.94 64.2282 -152.23 140.273C-215.734 214.175 -277.186 290.622 -346.759 358.277C-466.983 476.041 -616.596 559.401 -780 599.665V622.335C-576.812 578.735 -399.419 477.208 -250.409 313.382C-177.533 233.053 -109.611 148.261 -40.3046 65.0761C33.7318 -24.1782 107.59 -113.12 192.426 -192.333C199.656 -199.057 206.96 -205.707 214.338 -212.282H158.688C116.947 -174.028 77.5582 -133.283 40.7383 -90.2711V-90.2711Z" fill="red"/>
<path d="M148.245 -88.3521C64.5691 6.74837 -15.7598 104.75 -98.32 200.787C-144.108 253.983 -189.315 307.892 -238.628 357.652C-392.011 512.24 -572.841 606.716 -780 642.507V659.778C-551.866 627.066 -350.374 525.494 -179.988 346.495C-107.201 270.049 -41.6435 186.73 28.2426 107.516C99.9585 26.2504 171.451 -55.2834 245.845 -134.095C272.406 -162.155 300.936 -188.283 331.216 -212.282H274.986C229.62 -174.287 187.248 -132.854 148.245 -88.3521V-88.3521Z" fill="red"/>
<path d="M674.265 343.367C750.131 289.502 828.585 239.564 913.868 201.497C986.03 169.321 1060.78 147.365 1140.08 142.233C1245.36 135.449 1345.37 157.183 1440.16 201.096C1511.16 234.031 1579.35 272.946 1648.92 308.915C1703.95 337.343 1758.04 367.912 1814.58 392.948C1912.45 436.281 2011.79 433.603 2108.72 389.11C2147.09 372.194 2183.62 351.377 2217.74 326.989C2234.25 314.761 2250.72 302.31 2266.83 289.547V220.419C2214.96 264.667 2157.44 301.825 2095.77 330.916C2031.91 360.504 1965.28 376.659 1894.37 372.062C1836.94 368.358 1783.52 350.151 1732.82 324.579C1670.34 292.983 1609.52 257.638 1546.64 226.399C1484.69 195.696 1422.48 164.591 1357.86 140.358C1212.42 85.7346 1066.49 90.3758 923.284 150.533C881.379 168.384 839.296 187.083 801.095 211.315C724.202 260.138 649.363 311.994 574.701 364.387C395.032 490.682 217.015 619.386 36.587 744.655C-0.840313 770.628 -38.7436 795.604 -77.123 819.584H-0.275009C43.8464 790.665 87.4769 760.914 130.616 730.329C311.951 601.535 493.167 472.548 674.265 343.367Z" fill="red"/>
<path d="M539.846 337.297C575.771 309.138 612.365 282.094 649.272 255.585C721.702 203.104 796.943 155.174 878.789 118.267C1027.89 51.1035 1180.2 41.107 1333.41 99.2562C1408.11 127.639 1479.52 164.858 1551.81 199.31C1607.73 226.087 1661.95 256.21 1718.36 281.737C1827.43 331.139 1938.28 329.889 2047.04 281.737C2095.34 260.429 2141.64 234.845 2185.38 205.29C2213.28 186.368 2240.32 166.152 2266.83 145.177V80.9144C2244.13 98.4082 2221.31 115.724 2198.37 132.86C2145.57 171.988 2088 204.231 2027.05 228.809C1907.27 277.899 1787.58 280.398 1668.87 226.042C1615.9 201.765 1564.44 174.185 1511.6 149.551C1448.1 119.919 1385 88.858 1319.71 63.7329C1220.1 25.4428 1116.61 13.8398 1010.71 33.3418C924.335 49.1175 841.943 81.8495 768.292 129.647C687.964 181.504 608.527 235.369 534 294.991C365.041 430.167 185.908 550.615 6.77441 671.242C-73.8168 725.516 -157.484 775.075 -243.807 819.672H-161.872C-108.765 789.266 -56.4623 756.748 -4.96255 722.117C179.482 597.697 364.327 474.258 539.846 337.297Z" fill="red"/>
<path d="M91.3453 401.963C168.863 338.77 238.972 266.43 311.313 197.079C400.567 111.261 489.821 24.863 591.616 -46.5851C653.067 -89.7396 718.178 -125.888 789.582 -150.075C915.654 -192.828 1041.15 -184.349 1165.34 -143.292C1235.36 -120.175 1304.04 -93.0866 1373.31 -67.426C1467.53 -32.3215 1567.3 -14.4539 1667.84 -14.6767C1783.88 -15.123 1895.71 -39.4894 2005.98 -72.692C2093.14 -99.1559 2180.03 -126.245 2267.14 -153.021V-188.723C2231.16 -176.436 2192.81 -172.678 2155.13 -177.744C2138.28 -179.391 2121.35 -179.987 2104.43 -179.529C2104.43 -177.923 2087.92 -175.647 2088.01 -174.04C2121.3 -170.336 2195.69 -165.606 2197.39 -163.107C2083.68 -142.891 1967.47 -120.175 1853.45 -101.834C1645.13 -68.2739 1441.32 -85.4107 1242.99 -160.34C1195.24 -178.191 1147.18 -196.041 1098.62 -211.75H1048.6C1059.52 -209.073 1070.42 -206.097 1081.31 -202.825C1140.62 -184.974 1199.39 -165.07 1256.92 -142.31C1461.27 -61.4013 1670.97 -46.3173 1885.36 -88.7578C1987.15 -109.019 2088.37 -132.359 2189.89 -154.137C2207.43 -157.93 2233.18 -164.312 2251.88 -162.794C2226 -155.922 2192.26 -144.943 2166.33 -138.562C2057.75 -111.205 1949.98 -79.6092 1840.24 -57.8311C1665.88 -24.0484 1494.07 -38.9539 1326.4 -101.209C1247.95 -130.484 1169.05 -159.224 1088.54 -182.073C940.243 -223.8 797.972 -203.093 663.064 -129.279C578.54 -83.0009 503.075 -24.3161 432.565 40.7056C379.012 90.1079 327.245 141.474 275.031 192.438C218.22 247.776 163.463 305.389 104.957 358.763C-103.854 549.054 -346.358 673.965 -625.545 724.171C-676.664 733.38 -728.214 740.008 -780 744.03V760.631C-760.721 759.024 -741.383 757.12 -721.985 754.919C-415.485 719.306 -146.294 595.511 91.3453 401.963Z" fill="red"/>
<path d="M96.7898 330.251C168.193 258.446 237.901 185.257 308.68 113.006C379.458 40.7543 451.174 -28.1054 531.815 -87.8166C606.298 -143.154 685.556 -188.406 775.658 -212.282H677.121C607.745 -183.961 543.479 -144.463 486.876 -95.3586C412.259 -31.4525 340.9 36.5593 271.371 106.044C189.48 187.756 112.766 274.69 30.8309 356.358C-123.981 510.723 -308.826 615.463 -519.02 674.594C-604.23 698.201 -691.721 712.623 -780 717.614V730.333C-528.6 713.97 -297.327 632.51 -86.1815 485.955C-20.5829 439.726 40.6614 387.608 96.7898 330.251V330.251Z" fill="red"/>
<path d="M632.14 169.053C699.177 117.008 772.2 73.1699 849.653 38.4741C987.238 -22.3974 1128.31 -32.9294 1270.62 16.1605C1344.26 41.6872 1415.3 75.8716 1487.06 107.289C1539.63 130.317 1590.55 157.138 1643.57 178.96C1742.33 219.66 1843.59 222.74 1946.19 193.375C2025.05 170.212 2099.88 135.035 2168.03 89.0813C2201.32 67.0057 2234.32 44.469 2267.01 21.4711V-23.156C2250.35 -12.386 2233.62 -1.76473 2216.81 8.70778C2146.34 52.5763 2074 92.9192 1996.48 123.266C1850.24 180.433 1705.29 181.861 1561.41 114.787C1496.21 84.3508 1430.92 54.0936 1365.05 24.7289C1301.68 -3.56469 1236.26 -26.0122 1167.67 -38.1061C1058.82 -57.2958 953.456 -44.0415 851.572 -2.40439C768.122 32.2555 689.864 78.2853 619.02 134.378C538.691 196.856 460.147 262.369 381.202 326.989C182.777 489.083 -32.2613 629.699 -260.314 746.484C-312.795 773.498 -366.11 797.865 -420.258 819.583H-333.726C-74.8881 696.145 160.788 535.978 387.851 362.69C470.411 299.498 549.892 232.379 632.14 169.053Z" fill="red"/>
<path d="M354.915 308.781C438.993 237.377 523.16 165.974 609.29 97.3371C673.497 46.0404 744.26 3.53755 819.707 -29.047C939.263 -80.6807 1062.75 -93.444 1188.55 -59.5274C1250.76 -42.7476 1311.28 -19.0952 1371.52 4.5572C1434.22 29.1914 1494.87 59.1362 1557.53 83.9043C1653.92 122.105 1753.62 130.049 1855.73 111.171C1945.38 94.6148 2029.24 61.8139 2109.52 20.0428C2162.45 -7.71526 2214.48 -37.2138 2266.92 -66.043V-94.7829C2234.43 -78.8361 2201.97 -62.8596 2169.54 -46.8533C2092.61 -9.05408 2015 26.8708 1933.02 52.0405C1821.45 86.2249 1707.52 99.0329 1593.5 69.1773C1530.39 52.6653 1469.97 25.8444 1408.65 2.86136C1341.31 -22.353 1275.39 -51.9408 1206.98 -73.6296C1053.87 -122.184 904.231 -108.751 761.915 -34.1345C708.293 -6.83034 657.072 24.953 608.799 60.8767C530.032 121.123 453.764 184.985 379.505 250.765C265.393 351.846 148.157 448.062 18.4262 528.971C-139.063 627.151 -301.684 713.727 -478.72 771.832C-536.837 790.8 -595.898 806.739 -655.667 819.583H-526.248C-484.18 805.987 -442.453 790.724 -401.069 773.796C-123.979 660.086 126.558 502.284 354.915 308.781Z" fill="red"/>
<path d="M185.827 383.353C273.207 313.6 353.536 234.566 437.123 159.994C515.488 90.1968 596.575 24.1039 686.499 -30.7428C855.993 -134.099 1034.23 -154.985 1221.36 -88.0441C1292.76 -62.6513 1362.82 -34.4915 1432.67 -5.75163C1587.88 58.2437 1745.55 64.0899 1906.56 19.0611C1999.92 -7.00119 2088.77 -44.5326 2177.27 -83.3583C2207.17 -96.4787 2236.98 -109.733 2267.02 -122.586V-141.597L2260.05 -139.008C2166.87 -104.779 2074.27 -68.7652 1980.51 -36.3659C1897.83 -7.3077 1811.54 10.2172 1724.08 15.714C1603.59 23.0329 1488.81 -1.64593 1377.24 -46.3624C1307.93 -74.1651 1237.96 -100.852 1166.78 -123.21C1001.3 -175.156 842.248 -156.101 692.524 -69.0776C642.473 -40.7551 594.777 -8.46028 549.895 27.4956C471.798 91.6695 395.932 158.461 322.297 227.872C196.761 346.401 67.431 459.04 -82.5609 546.867C-267.674 655.311 -462.918 734.301 -675.567 768.44C-710.287 773.974 -745.051 778.392 -779.905 781.829V808.605C-742.686 803.785 -705.497 797.969 -668.337 791.156C-347.111 731.891 -67.2091 584.755 185.827 383.353Z" fill="red"/>
<path d="M-14.2426 360.82C23.9137 323.021 60.1509 283.258 97.0576 244.21C187.74 148.172 276.86 50.6616 369.283 -43.5464C431.904 -107.493 503.364 -162.136 581.485 -205.811C585.457 -207.998 589.474 -210.274 593.49 -212.282H524.898C510.677 -203.356 496.545 -193.88 482.502 -183.854C464.651 -171.002 447.202 -157.97 430.155 -144.315C338.089 -70.1888 258.385 15.9416 179.484 103.188C101.253 189.675 25.5649 278.751 -56.5491 361.401C-258.308 564.633 -500.545 675.085 -780 696.104V708.421C-752.272 706.309 -724.588 703.334 -696.949 699.496C-431.908 662.902 -204.31 549.102 -14.2426 360.82Z" fill="red"/>
</g>
</g>
</svg>
