<svg width="504"  height="730" viewBox="0 0 504 730" fill="none" xmlns="http://www.w3.org/2000/svg">
                    <g opacity="0.03">
                    <mask id="mask0_1_62" style="mask-type:alpha" maskUnits="userSpaceOnUse" x="0" y="0" width="2656" height="730">
                    <path fill-rule="evenodd" clip-rule="evenodd" d="M1817.69 155.918L1802.39 274.625H1696.63V529.273C1696.63 589.205 1717.29 617.885 1765.22 617.885C1780.58 618.179 1795.92 616.741 1810.96 613.598V723.345C1788.77 728.073 1766.12 730.274 1743.44 729.904C1624.69 729.904 1565.87 667.957 1565.87 543.634V274.711H1538.73C1530.91 274.711 1522.61 274.897 1513.94 275.091L1513.94 275.091C1504.45 275.303 1494.52 275.525 1484.29 275.525C1393.88 275.525 1336.13 335.5 1336.13 425.913V440.789V714.557H1206.54V165.821H1336.17V242.987V247.274C1362.07 190.085 1421.1 157.118 1497.28 156.433V155.918H1565.87V0H1696.8V155.918H1817.69ZM844.538 153.735C935.037 153.735 1001.49 191.846 1020.01 245.22V165.91H1150.59V714.646H1019.92V635.122C1001.4 688.495 934.951 726.649 844.538 726.649C767.372 726.678 702.053 699.441 648.58 644.939C610.361 605.053 584.859 554.707 575.315 500.296C565.735 554.91 539.833 605.34 501.021 644.939C448.763 699.427 383.215 726.649 306.049 726.649C215.679 726.649 149.23 688.495 130.711 635.122V714.646H0V0.38916H130.625V245.22C149.145 191.846 215.593 153.735 305.963 153.735C383.3 153.735 448.677 180.957 500.936 236.474C539.867 275.576 565.807 325.721 575.229 380.089C584.618 325.927 610.156 275.867 648.494 236.474C701.867 180.957 767.372 153.735 844.538 153.735ZM288.644 607.9C335.5 607.9 373.612 591.566 404.092 559.971C435.688 528.419 450.949 488.55 450.949 440.407C450.949 392.264 435.688 351.966 404.092 320.371C373.612 288.776 335.458 272.442 288.644 272.442C266.49 272.077 244.485 276.127 223.913 284.356C203.34 292.585 184.613 304.828 168.822 320.371C137.184 351.966 120.893 392.264 120.893 440.192C120.893 488.121 137.184 528.419 168.822 559.971C184.613 575.514 203.34 587.757 223.913 595.985C244.485 604.214 266.49 608.264 288.644 607.9ZM862.072 607.9C908.843 607.9 949.184 591.609 980.779 559.971C1013.45 528.419 1029.78 488.55 1029.78 440.407C1029.78 392.264 1013.45 351.966 980.779 320.371C949.184 288.776 908.886 272.442 862.072 272.442C840.392 271.988 818.851 276.011 798.795 284.257C778.739 292.504 760.599 304.798 745.509 320.371C715.028 351.966 699.767 392.264 699.767 440.192C699.767 488.121 715.028 528.419 745.509 559.971C760.599 575.544 778.739 587.838 798.795 596.084C818.851 604.331 840.392 608.353 862.072 607.9ZM2004.6 534.932V0H1873.88V552.337C1873.88 671.087 1931.63 729.904 2047.08 729.904C2067.99 730.503 2088.88 728.297 2109.2 723.345V606.824C2096.39 610.104 2083.18 611.548 2069.97 611.112C2022 611.154 2004.6 588.305 2004.6 534.932ZM2579.32 229.912C2630.51 283.328 2655.54 348.662 2655.54 427.114C2655.54 442.706 2654.57 457.321 2653.66 470.922L2653.53 472.856H2226.59C2230.92 559.968 2295.18 616.642 2392.15 616.642C2448.61 616.642 2497.61 595.893 2540.09 553.452L2618.33 629.246C2556.26 694.58 2480.03 727.247 2387.43 727.247C2301.69 727.247 2230.74 701.182 2177.37 650.081C2124 598.98 2096.78 530.345 2096.78 444.305V440.018C2096.78 353.035 2124 283.328 2177.37 229.955C2231.86 176.582 2300.45 150.431 2384.35 150.431C2463.87 150.431 2529.33 176.582 2579.32 229.912ZM2278.67 296.575C2249.26 319.439 2232.93 347.762 2229.67 381.543L2522.69 381.329C2522.69 348.619 2508.5 320.325 2481.28 297.432C2454.7 273.581 2420.05 260.737 2384.35 261.507C2346.17 260.903 2308.92 273.266 2278.67 296.575Z" fill="black"/>
                    </mask>
                    <g mask="url(#mask0_1_62)">
                    <path d="M131.858 -99.0103C143.757 -112.003 155.779 -124.928 167.924 -137.784H122.996C88.2435 -100.569 53.8193 -63.027 18.9028 -25.8948C-22.9068 18.5817 -63.5265 64.3302 -106.977 107.166V156.402C-95.8171 146.144 -84.8758 135.558 -74.1533 124.644C-2.88414 52.7187 63.4614 -24.1716 131.858 -99.0103Z" fill="black"/>
                    <path d="M18.6156 144.872C86.4792 71.9207 150.937 -4.18996 217.16 -78.6594C235.008 -98.6 252.938 -118.418 271.278 -137.784H222.453C165.995 -76.2387 110.769 -13.5038 55.1323 48.8619C4.13198 106.099 -48.3044 161.694 -106.977 210.93V259.551C-61.9915 224.89 -19.981 186.53 18.6156 144.872Z" fill="black"/>
                    <path d="M146.916 252.165C218.76 173.839 285.844 91.1223 354.651 10.088C397.446 -40.379 440.527 -90.5997 486.85 -137.62H435.522C390.389 -91.2972 348.21 -42.1843 306.4 7.21585C254.99 67.9813 203.825 129.075 151.84 189.225C76.0166 276.619 -9.85925 349.242 -106.977 404.92V445.622C-11.4418 396.864 74.5558 331.338 146.916 252.165Z" fill="black"/>
                    <path d="M268.16 355.848C336.147 286.918 396.215 209.864 459.237 136.133C520.29 64.9046 579.455 -7.96472 641.862 -77.9619C660.516 -98.6958 679.828 -118.636 699.796 -137.784H648.96C622.29 -112.058 596.975 -84.937 572.767 -56.7084C497.559 31.0548 425.059 121.198 350.466 209.412C312.596 254.135 274.602 298.94 232.956 340.257C133.171 439.632 19.8602 511.202 -106.977 554.967V582.826C33.3864 540.771 159.143 466.137 268.16 355.848Z" fill="black"/>
                    <path d="M503.221 403.402C578.675 325.199 648.632 241.498 722.116 161.079C785.385 91.9433 847.791 21.5769 915.162 -43.2916C951.54 -77.8284 990.6 -109.425 1031.97 -137.784H973.343C932.957 -107.984 895.281 -74.6747 860.757 -38.2449C792.072 33.8859 726.63 109.135 660.284 183.317C594.267 256.843 531.901 334.02 462.15 403.771C304.8 560.875 113.969 650.936 -106.977 676.334V688.643C-26.2159 681.486 53.3312 664.242 129.807 637.314C271.443 587.012 398.595 511.968 503.221 403.402Z" fill="black"/>
                    <path d="M647.606 -25.6076C587.415 44.1434 530.219 116.438 470.192 186.353C411.806 254.299 355.308 324.583 291.342 386.785C180.809 495.057 43.256 571.697 -106.977 608.716L-106.977 629.56C79.8324 589.473 242.927 496.13 379.926 345.509C446.928 271.655 509.376 193.698 573.095 117.218C641.164 35.1578 709.069 -46.615 787.067 -119.443C793.714 -125.625 800.429 -131.739 807.212 -137.784H756.048C717.671 -102.613 681.458 -65.1525 647.606 -25.6076Z" fill="black"/>
                    <path d="M746.447 -23.8433C669.516 63.5916 595.662 153.694 519.756 241.99C477.659 290.898 436.096 340.462 390.758 386.211C249.738 528.339 83.484 615.199 -106.977 648.105V663.984C102.768 633.909 288.019 540.525 444.671 375.953C511.591 305.669 571.864 229.066 636.117 156.237C702.053 81.5217 767.783 6.55991 836.18 -65.8991C860.6 -91.697 886.83 -115.72 914.67 -137.784H862.972C821.263 -102.851 782.306 -64.7584 746.447 -23.8433Z" fill="black"/>
                    <path d="M212.605 301.893C274.602 236.327 330.321 164.566 389.486 96.2509C457.555 17.7605 525.172 -61.1812 595.292 -137.62H546.795C509.622 -100.447 473.844 -61.7556 439.05 -22.4489C366.386 59.6111 298.276 145.774 227.417 229.64C134.443 339.395 24.0726 426.707 -106.977 486.939V521.445C12.0098 473.604 118.688 400.899 212.605 301.893Z" fill="black"/>
                    <path d="M75.8525 205.432C152.004 124.152 221.263 36.5939 296.307 -45.7534C324.617 -76.8815 353.489 -107.558 382.921 -137.784H327.49C320.514 -130.316 313.58 -122.726 306.728 -115.094C241.778 -42.7582 180.233 32.4498 114.585 104.006C63.6255 159.397 12.0098 215.115 -45.2271 263.654C-65.3592 280.613 -85.9426 296.574 -106.977 311.536V358.023C-39.8689 315.038 21.5579 263.771 75.8525 205.432Z" fill="black"/>
                    <path d="M1106.48 367.501C1139.51 341.611 1173.16 316.746 1207.09 292.375C1273.68 244.123 1342.86 200.057 1418.11 166.125C1555.19 104.375 1695.22 95.1844 1836.08 148.646C1904.76 174.742 1970.41 208.961 2036.88 240.636C2088.29 265.254 2138.14 292.949 2190 316.418C2290.28 361.838 2392.2 360.69 2492.19 316.418C2536.6 296.828 2579.17 273.306 2619.38 246.134C2645.03 228.737 2669.89 210.15 2694.26 190.866V131.783C2673.39 147.867 2652.41 163.787 2631.32 179.542C2582.78 215.516 2529.85 245.16 2473.81 267.757C2363.68 312.89 2253.64 315.187 2144.5 265.213C2095.8 242.892 2048.49 217.536 1999.91 194.887C1941.53 167.643 1883.51 139.086 1823.48 115.987C1731.9 80.7828 1636.76 70.115 1539.39 88.0452C1459.98 102.549 1384.23 132.643 1316.52 176.588C1242.66 224.265 1169.63 273.788 1101.11 328.604C945.769 452.884 781.075 563.624 616.38 674.528C542.285 724.427 465.361 769.992 385.996 810.994H461.328C510.153 783.039 558.24 753.142 605.589 721.302C775.166 606.911 945.113 493.422 1106.48 367.501Z" fill="black"/>
                    <path d="M694.134 426.954C765.403 368.855 829.861 302.346 896.371 238.585C978.431 159.684 1060.49 80.2501 1154.08 14.5611C1210.58 -25.1149 1270.44 -58.3493 1336.09 -80.5875C1452 -119.894 1567.38 -112.099 1681.56 -74.351C1745.94 -53.0974 1809.08 -28.1922 1872.76 -4.59995C1959.39 27.6749 2051.12 44.1024 2143.56 43.8975C2250.24 43.4872 2353.06 21.0848 2454.44 -9.44149C2534.58 -33.7723 2614.46 -58.6775 2694.55 -83.2955V-116.12C2661.47 -104.824 2626.21 -101.368 2591.57 -106.026C2576.08 -107.54 2560.51 -108.088 2544.96 -107.667C2544.96 -106.19 2529.78 -104.098 2529.86 -102.621C2560.47 -99.2152 2628.86 -94.866 2630.42 -92.5683C2525.88 -73.9817 2419.04 -53.0974 2314.2 -36.2341C2122.68 -5.37952 1935.29 -21.135 1752.95 -90.0244C1709.05 -106.436 1664.86 -122.848 1620.22 -137.291H1574.23C1584.27 -134.829 1594.29 -132.094 1604.3 -129.085C1658.83 -112.673 1712.87 -94.3736 1765.76 -73.4483C1953.63 0.939102 2146.43 14.8073 2343.54 -24.2123C2437.13 -42.8399 2530.19 -64.2986 2623.53 -84.3213C2639.65 -87.8088 2663.33 -93.6761 2680.52 -92.2811C2656.72 -85.9625 2625.7 -75.8691 2601.87 -70.0018C2502.04 -44.8504 2402.95 -15.8011 2302.06 4.22151C2141.75 35.2812 1983.79 21.5772 1829.64 -35.6597C1757.51 -62.5754 1684.97 -88.9987 1610.95 -110.006C1474.61 -148.369 1343.8 -129.331 1219.77 -61.4675C1142.06 -18.9194 1072.68 35.035 1007.85 94.8158C958.613 140.236 911.018 187.462 863.013 234.318C810.782 285.195 760.438 338.165 706.648 387.237C514.668 562.189 291.711 677.032 35.0276 723.19C-11.9707 731.657 -59.3658 737.751 -106.977 741.449L-106.977 756.712C-89.2523 755.235 -71.4727 753.484 -53.6383 751.46C228.156 718.718 475.649 604.901 694.134 426.954Z" fill="black"/>
                    <path d="M699.139 361.018C764.787 295.001 828.876 227.712 893.95 161.284C959.024 94.8565 1024.96 31.5472 1099.1 -23.351C1167.58 -74.2282 1240.45 -115.833 1323.29 -137.784H1232.69C1168.91 -111.746 1109.82 -75.4316 1057.78 -30.285C989.181 28.4699 923.574 90.9996 859.649 154.883C784.359 230.009 713.828 309.936 638.497 385.021C496.164 526.944 326.218 623.241 132.966 677.606C54.6246 699.31 -25.8144 712.57 -106.977 717.159L-106.977 728.852C124.158 713.808 336.79 638.914 530.916 504.172C591.227 461.669 647.535 413.753 699.139 361.018Z" fill="black"/>
                    <path d="M1191.33 212.818C1252.96 164.968 1320.1 124.663 1391.31 92.764C1517.81 36.799 1647.5 27.116 1778.35 72.249C1846.05 95.7181 1911.37 127.147 1977.34 156.032C2025.68 177.204 2072.49 201.863 2121.23 221.926C2212.03 259.346 2305.13 262.177 2399.46 235.179C2471.97 213.884 2540.76 181.542 2603.42 139.292C2634.03 118.996 2664.36 98.2757 2694.42 77.1316V36.1015C2679.11 46.0035 2663.72 55.7686 2648.27 65.397C2583.48 105.729 2516.97 142.821 2445.7 170.721C2311.24 223.28 2177.98 224.593 2045.7 162.925C1985.75 134.943 1925.73 107.125 1865.17 80.1268C1806.9 54.1137 1746.75 33.4756 1683.69 22.3565C1583.62 4.71358 1486.75 16.8995 1393.07 55.1805C1316.35 87.0467 1244.4 129.366 1179.27 180.937C1105.41 238.38 1033.2 298.612 960.618 358.023C778.188 507.052 580.482 636.334 370.812 743.705C322.56 768.542 273.543 790.944 223.76 810.912H303.317C541.291 697.423 757.971 550.167 966.732 390.847C1042.64 332.749 1115.71 271.039 1191.33 212.818Z" fill="black"/>
                    <path d="M936.464 341.283C1013.76 275.635 1091.15 209.987 1170.34 146.882C1229.37 99.7205 1294.43 60.6436 1363.79 30.6855C1473.71 -16.7863 1587.24 -28.5209 1702.91 2.66196C1760.1 18.0892 1815.74 39.8352 1871.13 61.5811C1928.78 84.2296 1984.54 111.761 2042.14 134.532C2130.77 169.654 2222.43 176.957 2316.3 159.602C2398.73 144.38 2475.83 114.223 2549.64 75.8185C2598.3 50.2978 2646.14 23.177 2694.35 -3.32842V-29.7518C2664.48 -15.0904 2634.64 -0.401615 2604.83 14.3145C2534.09 49.0669 2462.74 82.0961 2387.37 105.237C2284.79 136.666 2180.04 148.442 2075.21 120.993C2017.2 105.811 1961.64 81.1524 1905.27 60.0219C1843.35 36.84 1782.75 9.63706 1719.85 -10.3035C1579.08 -54.9442 1441.5 -42.5941 1310.66 26.008C1261.36 51.1114 1214.27 80.3328 1169.88 113.361C1097.47 168.751 1027.35 227.465 959.072 287.944C854.158 380.877 746.372 469.337 627.098 543.725C482.303 633.991 332.79 713.589 170.024 767.01C116.592 784.449 62.2908 799.103 7.33966 810.912H126.327C165.004 798.412 203.367 784.379 241.416 768.815C496.171 664.271 726.514 519.189 936.464 341.283Z" fill="black"/>
                    <path d="M781 409.844C861.337 345.714 935.191 273.05 1012.04 204.489C1084.09 140.318 1158.64 79.5522 1241.32 29.1263C1397.15 -65.8992 1561.02 -85.1012 1733.06 -23.5562C1798.71 -0.210129 1863.13 25.6798 1927.34 52.1031C2070.04 110.94 2215 116.315 2363.04 74.9158C2448.87 50.9543 2530.56 16.4481 2611.92 -19.2481C2639.41 -31.3109 2666.82 -43.4968 2694.43 -55.3134V-72.7922L2688.03 -70.4125C2602.36 -38.9425 2517.23 -5.83123 2431.02 23.9566C2355.01 50.6725 2275.68 66.7848 2195.26 71.8386C2084.48 78.5675 1978.95 55.8779 1876.38 14.7658C1812.66 -10.7959 1748.32 -35.3318 1682.88 -55.8879C1530.74 -103.647 1384.51 -86.127 1246.85 -6.11845C1200.84 19.9211 1156.99 49.6128 1115.72 82.6705C1043.92 141.672 974.169 203.08 906.47 266.895C791.052 375.871 672.147 479.431 534.245 560.178C364.053 659.881 184.547 732.504 -10.9614 763.892C-42.8828 768.98 -74.8451 773.042 -106.89 776.201V800.819C-72.6706 796.388 -38.4789 791.04 -4.31454 784.776C291.02 730.288 548.36 595.012 781 409.844Z" fill="black"/>
                    <path d="M597.057 389.124C632.137 354.371 665.454 317.814 699.386 281.912C782.759 193.616 864.696 103.965 949.669 17.3508C1007.24 -41.441 1072.94 -91.6799 1144.77 -131.834C1148.42 -133.845 1152.11 -135.937 1155.8 -137.784H1092.74C1079.67 -129.578 1066.67 -120.866 1053.76 -111.648C1037.35 -99.8309 1021.31 -87.8502 1005.63 -75.295C920.989 -7.14412 847.709 72.0438 775.168 152.257C703.242 231.774 633.656 313.67 558.16 389.657C372.664 576.508 149.953 678.057 -106.977 697.382V708.707C-81.484 706.764 -56.0317 704.029 -30.6204 700.501C213.057 666.856 422.31 562.229 597.057 389.124Z" fill="black"/>
                    </g>
                    </g>
                </svg>   