<svg width="2889" height="794" viewBox="0 0 2889 794" fill="none" xmlns="http://www.w3.org/2000/svg">
<path fill-rule="evenodd" clip-rule="evenodd" d="M1977.05 169.588L1960.4 298.702H1845.37V575.675C1845.37 640.861 1867.84 672.056 1919.97 672.056C1936.68 672.376 1953.37 670.812 1969.73 667.393V786.761C1945.59 791.905 1920.96 794.298 1896.29 793.896C1767.13 793.896 1703.15 726.518 1703.15 591.295V298.795H1673.64C1665.13 298.795 1656.1 298.997 1646.67 299.208C1636.35 299.439 1625.55 299.681 1614.42 299.681C1516.08 299.681 1453.27 364.914 1453.27 463.253V479.434V777.203H1312.31V180.359H1453.32V264.29V268.953C1481.48 206.75 1545.69 170.893 1628.55 170.147V169.588H1703.15V0H1845.55V169.588H1977.05ZM918.58 167.216C1017.01 167.216 1089.29 208.669 1109.43 266.721V180.459H1251.46V777.302H1109.34V690.807C1089.19 748.859 1016.92 790.358 918.58 790.358C834.649 790.39 763.603 760.765 705.442 701.485C663.872 658.101 636.135 603.341 625.754 544.16C615.334 603.562 587.16 658.413 544.946 701.485C488.106 760.749 416.812 790.358 332.88 790.358C234.588 790.358 162.314 748.859 142.17 690.807V777.302H0V0.426361H142.077V266.721C162.22 208.669 234.494 167.216 332.787 167.216C416.905 167.216 488.013 196.825 544.853 257.209C587.197 299.739 615.412 354.281 625.66 413.414C635.872 354.504 663.649 300.056 705.348 257.209C763.401 196.825 834.649 167.216 918.58 167.216ZM313.949 661.198C364.914 661.198 406.367 643.432 439.52 609.067C473.885 574.749 490.484 531.384 490.484 479.021C490.484 426.657 473.885 382.826 439.52 348.461C406.367 314.096 364.867 296.33 313.949 296.33C289.853 295.933 265.919 300.339 243.543 309.289C221.168 318.239 200.798 331.556 183.623 348.461C149.211 382.826 131.492 426.657 131.492 478.787C131.492 530.918 149.211 574.749 183.623 609.067C200.798 625.973 221.168 639.289 243.543 648.239C265.919 657.189 289.853 661.595 313.949 661.198ZM937.651 661.198C988.523 661.198 1032.4 643.479 1066.77 609.067C1102.3 574.749 1120.06 531.384 1120.06 479.021C1120.06 426.657 1102.3 382.826 1066.77 348.461C1032.4 314.096 988.569 296.33 937.651 296.33C914.07 295.837 890.641 300.212 868.826 309.181C847.012 318.151 827.282 331.523 810.868 348.461C777.716 382.826 761.116 426.657 761.116 478.787C761.116 530.918 777.716 574.749 810.868 609.067C827.282 626.005 847.012 639.377 868.826 648.347C890.641 657.316 914.07 661.691 937.651 661.198ZM2180.35 581.83V0H2038.18V600.761C2038.18 729.921 2100.98 793.896 2226.55 793.896C2249.29 794.547 2272.02 792.147 2294.12 786.762V660.025C2280.19 663.593 2265.82 665.163 2251.45 664.688C2199.28 664.735 2180.35 639.882 2180.35 581.83ZM2805.45 250.069C2861.12 308.168 2888.35 379.23 2888.35 464.56C2888.35 481.516 2887.29 497.41 2886.3 512.202L2886.16 514.312H2421.79C2426.5 609.061 2496.4 670.704 2601.87 670.704C2663.28 670.704 2716.57 648.136 2762.78 601.974L2847.88 684.413C2780.36 755.474 2697.46 791.005 2596.74 791.005C2503.48 791.005 2426.31 762.655 2368.26 707.074C2310.21 651.493 2280.6 576.841 2280.6 483.258V478.595C2280.6 383.986 2310.21 308.168 2368.26 250.115C2427.52 192.063 2502.13 163.62 2593.38 163.62C2679.88 163.62 2751.08 192.063 2805.45 250.069ZM2478.44 322.576C2446.46 347.444 2428.69 378.25 2425.15 414.994L2743.85 414.76C2743.85 379.183 2728.42 348.408 2698.81 323.509C2669.91 297.566 2632.21 283.596 2593.38 284.434C2551.86 283.777 2511.34 297.224 2478.44 322.576Z" fill="white"/>
</svg>
