<svg width="1440" height="794" viewBox="0 0 1440 794" fill="none" xmlns="http://www.w3.org/2000/svg">
<path d="M2327 678.103C2328.5 677.539 2329.86 676.656 2330.98 675.516C2332.1 674.376 2332.97 673.005 2333.51 671.498L2268.22 684.886C2271.52 681.585 2275.12 678.597 2278.98 675.961C2303.86 663.633 2327.89 649.663 2350.92 634.145V561.67C2343.33 567.412 2335.73 573.11 2328.11 578.763C2293.21 603.495 2255.61 624.2 2216.05 640.482C2131.26 676.987 2043.57 680.066 1957.97 644.007C1901.92 620.355 1848.1 591.08 1794.24 562.518C1726.58 526.817 1660.8 487.411 1592.66 452.691C1519.63 414.895 1440.6 390.071 1359.08 379.324C1260.9 366.917 1166.56 381.689 1074.45 415.606C978.765 450.772 891.251 501.513 808.245 559.662C632.711 682.536 457.966 806.346 284.009 931.094C245.333 958.584 206.566 985.747 167.711 1012.58H246.299C282.403 986.7 318.372 960.682 354.565 934.977C506.297 827.336 657.494 719.338 809.762 612.635C885.182 559.751 963.904 512 1048.43 474.514C1141.12 433.412 1237.51 408.867 1339.89 412.883C1433.34 416.587 1521.3 442.427 1605.15 482.279C1650.36 503.744 1694.63 527.441 1738.36 551.808C1835.25 605.896 1927.36 669.133 2038.08 704.21C2034.62 706.616 2030.89 708.608 2026.97 710.145C1917.45 726.434 1815.79 765.483 1718.19 816.268C1686.69 832.691 1655.27 849.471 1625.15 868.259C1549.73 915.355 1475.05 963.464 1401.12 1012.58H1483.86C1541.96 973.639 1600.33 934.962 1658.97 896.553C1768.22 824.792 1883.27 763.519 2010.32 728.531C2050.78 717.492 2092.08 709.805 2133.81 705.548C2118.54 710.279 2103.28 714.875 2088.06 719.695C1984.88 752.496 1888.98 800.872 1797.99 858.396C1733.1 899.319 1669.24 941.403 1606.76 985.628C1594 994.554 1581.16 1003.48 1568.25 1012.4H1641.66C1683.79 983.1 1725.94 953.839 1768.13 924.623C1841.36 873.837 1918.57 828.452 1995.73 784.092C2064.93 745.127 2138.98 715.504 2215.96 695.998C2222.38 694.038 2229.14 693.52 2235.78 694.481C2233.77 696.354 2231.54 697.973 2229.13 699.3C2111.49 743.928 2004.21 807.388 1901.57 878.88C1839.09 922.526 1777.15 967.421 1715.47 1012.4H1783.48C1856.63 958.852 1928.7 904.095 2002.69 851.747C2103.46 780.879 2210.25 719.963 2327 678.103Z" fill="#FFD200"/>
<path d="M1313.16 2.00103C1325.01 6.70025 1338.21 6.70025 1350.06 2.00103C1370.06 -4.99056 1390.04 -12.0863 1410 -19.2861H1360.51L1334.53 -9.11114C1328.64 -6.87978 1319.36 -0.721232 1313.16 2.00103Z" fill="#FFD200"/>
<path d="M1411.52 26.3675C1411.52 26.3675 1439.1 25.8766 1440.26 25.6534C1521.26 10.7033 1602.3 -4.46991 1683.17 -19.2861H1609.08C1567.4 -9.69129 1525.68 -0.00719642 1484.13 9.36451C1460.12 14.7198 1435.89 18.0668 1411.52 26.3675Z" fill="#FFD200"/>
<path d="M1362.38 18.4238C1374.39 18.4238 1385.5 19.5395 1392.82 17.6205C1439.1 5.48194 1485.29 -6.92441 1531.52 -19.2861H1471.45C1442.89 -10.3607 1414.02 -1.43527 1384.25 7.49016C1376.42 9.92854 1369.03 13.621 1362.38 18.4238V18.4238Z" fill="#FFD200"/>
<path d="M-287.974 517.628C-214.027 442.654 -148.692 358.844 -80.1451 278.649C-13.7399 201.176 50.6125 121.919 118.49 45.7847C138.781 23.2331 159.785 1.54427 181.504 -19.2817H126.211C97.2033 8.69949 69.6683 38.198 43.3382 68.9015C-38.4633 164.359 -117.32 262.405 -198.452 358.353C-239.643 406.997 -280.967 455.73 -326.264 500.669C-434.797 608.756 -558.043 686.601 -696 734.203V764.505C-543.33 718.762 -406.548 637.585 -287.974 517.628Z" fill="#FFD200"/>
<path d="M-32.3048 569.35C49.7646 484.291 125.854 393.252 205.781 305.782C274.596 230.586 342.474 154.05 415.752 83.4946C455.319 45.9298 497.803 11.5632 542.805 -19.2817H479.033C435.106 13.1308 394.128 49.3601 356.576 88.9838C281.87 167.438 210.69 249.284 138.528 329.97C66.7229 409.942 -1.11037 493.886 -76.9766 569.752C-248.122 740.63 -455.683 838.586 -696 866.21V879.599C-608.158 871.814 -521.637 853.058 -438.457 823.77C-284.404 769.057 -146.104 687.434 -32.3048 569.35Z" fill="#FFD200"/>
<path d="M124.738 102.729C59.2703 178.595 -2.94005 257.228 -68.2296 333.273C-131.734 407.175 -193.186 483.622 -262.759 551.277C-382.983 669.041 -532.596 752.401 -696 792.665V815.335C-492.812 771.735 -315.419 670.208 -166.409 506.382C-93.5332 426.053 -25.6106 341.261 43.6954 258.076C117.732 168.822 191.59 79.8798 276.426 0.666606C283.656 -6.05722 290.96 -12.7067 298.338 -19.2817H242.688C200.947 18.9725 161.558 59.7172 124.738 102.729V102.729Z" fill="#FFD200"/>
<path d="M232.245 104.648C148.569 199.748 68.2402 297.75 -14.32 393.787C-60.1075 446.983 -105.315 500.892 -154.628 550.652C-308.011 705.24 -488.841 799.716 -696 835.507V852.778C-467.866 820.066 -266.374 718.494 -95.9878 539.495C-23.2009 463.049 42.3565 379.73 112.243 300.516C183.958 219.25 255.451 137.717 329.845 58.905C356.406 30.8454 384.936 4.71676 415.216 -19.2817H358.986C313.62 18.7134 271.248 60.1458 232.245 104.648V104.648Z" fill="#FFD200"/>
<path d="M-348.399 458.938C-280.967 387.624 -220.364 309.571 -156.011 235.267C-81.9748 149.895 -8.42924 64.0327 67.8386 -19.1077H15.0892C-25.343 21.3245 -64.2578 63.408 -102.102 106.161C-181.136 195.415 -255.217 289.132 -332.289 380.35C-433.414 499.728 -553.461 594.694 -696 660.207V697.738C-566.581 645.703 -450.551 566.624 -348.399 458.938Z" fill="#FFD200"/>
<path d="M1682.85 717.107C1764.65 696.177 1847.53 687.118 1931.92 696.623C1938.66 697.091 1945.43 697.091 1952.18 696.623C1923.04 678.772 1894.52 659.984 1864.62 643.561C1784.29 599.247 1704.9 551.897 1621.71 513.161C1443.92 430.377 1263.36 430.824 1085.25 513.161C1019.34 543.641 954.091 577.602 893.845 617.901C747.735 715.545 604.393 817.295 460.693 918.509C417.316 949.034 374.92 980.987 332.346 1012.76H409.461C454.892 979.381 500.412 946.134 546.467 913.69C677.373 821.311 809.589 730.569 943.113 641.464C1020.47 589.554 1104.55 548.444 1193.03 519.275C1320.88 477.459 1448.92 476.12 1577.31 516.686C1699.23 555.155 1806.78 621.828 1915.4 686.27L1912.86 692.116L1887.83 679.709H1887.42L1888.05 680.2L1886.17 679.933C1878.81 681.271 1871.31 683.815 1864.17 682.967C1728.1 667.526 1599.76 696.355 1475.92 750.176C1368.99 796.677 1271.52 859.155 1173.88 921.008C1127.51 950.462 1082.04 981.121 1037.19 1012.58H1127.24C1205.83 959.031 1285.98 907.754 1367.25 858.084C1466.19 797.614 1569.63 746.07 1682.85 717.107Z" fill="#FFD200"/>
<path d="M758.264 536.367C834.131 482.502 912.585 432.564 997.868 394.497C1070.03 362.321 1144.78 340.365 1224.08 335.233C1329.36 328.449 1429.37 350.183 1524.16 394.096C1595.16 427.031 1663.35 465.946 1732.92 501.915C1787.95 530.343 1842.04 560.912 1898.58 585.948C1996.45 629.281 2095.79 626.603 2192.72 582.11C2231.09 565.194 2267.62 544.377 2301.74 519.989C2318.25 507.761 2334.72 495.31 2350.83 482.547V413.419C2298.96 457.667 2241.44 494.825 2179.77 523.916C2115.91 553.504 2049.28 569.659 1978.37 565.062C1920.94 561.358 1867.52 543.151 1816.82 517.579C1754.34 485.983 1693.52 450.638 1630.64 419.399C1568.69 388.696 1506.48 357.591 1441.86 333.358C1296.42 278.735 1150.49 283.376 1007.28 343.533C965.379 361.384 923.296 380.083 885.095 404.315C808.202 453.138 733.362 504.994 658.701 557.387C479.032 683.681 301.015 812.386 120.587 937.655C83.1596 963.628 45.2563 988.604 6.87695 1012.58H83.7249C127.846 983.665 171.477 953.914 214.616 923.329C395.951 794.535 577.167 665.548 758.264 536.367Z" fill="#FFD200"/>
<path d="M623.846 530.297C659.771 502.138 696.366 475.094 733.272 448.585C805.702 396.104 880.944 348.174 962.79 311.267C1111.89 244.103 1264.2 234.107 1417.41 292.256C1492.11 320.639 1563.52 357.858 1635.81 392.31C1691.73 419.087 1745.95 449.21 1802.36 474.737C1911.43 524.139 2022.28 522.889 2131.04 474.737C2179.34 453.429 2225.64 427.845 2269.38 398.29C2297.28 379.368 2324.32 359.152 2350.83 338.177V273.914C2328.13 291.408 2305.31 308.724 2282.37 325.86C2229.57 364.988 2172 397.231 2111.05 421.809C1991.27 470.899 1871.58 473.398 1752.87 419.042C1699.9 394.765 1648.44 367.185 1595.6 342.551C1532.1 312.919 1469 281.858 1403.71 256.733C1304.1 218.443 1200.61 206.84 1094.71 226.342C1008.34 242.117 925.944 274.849 852.293 322.647C771.964 374.504 692.528 428.369 618 487.991C449.042 623.167 269.908 743.615 90.7749 864.242C10.1837 918.516 -73.4836 968.075 -159.807 1012.67H-77.8712C-24.7649 982.266 27.5382 949.748 79.0379 915.117C263.482 790.697 448.328 667.258 623.846 530.297Z" fill="#FFD200"/>
<path d="M175.345 594.963C252.863 531.77 322.972 459.43 395.313 390.079C484.567 304.261 573.821 217.863 675.616 146.415C737.067 103.26 802.178 67.1124 873.582 42.9245C999.654 0.171677 1125.15 8.65084 1249.34 49.7078C1319.36 72.8247 1388.04 99.9134 1457.31 125.574C1551.53 160.678 1651.3 178.546 1751.84 178.323C1867.88 177.877 1979.71 153.511 2089.98 120.308C2177.14 93.8441 2264.03 66.7554 2351.14 39.9791V4.27737C2315.16 16.5637 2276.81 20.3219 2239.13 15.2557C2222.28 13.609 2205.35 13.0128 2188.43 13.4706C2188.43 15.0771 2171.92 17.3531 2172.01 18.9597C2205.3 22.6638 2279.69 27.3942 2281.39 29.8934C2167.68 50.1095 2051.47 72.8247 1937.45 91.1665C1729.13 124.726 1525.32 107.589 1326.99 32.6603C1279.24 14.8094 1231.18 -3.04148 1182.62 -18.7502H1132.6C1143.52 -16.0726 1154.42 -13.0975 1165.31 -9.82481C1224.62 8.02606 1283.39 27.9298 1340.92 50.6896C1545.27 131.599 1754.97 146.683 1969.36 104.242C2071.15 83.9815 2172.37 60.6415 2273.89 38.8634C2291.43 35.0701 2317.18 28.6884 2335.88 30.2058C2310 37.0783 2276.26 48.0566 2250.33 54.4383C2141.75 81.7948 2033.98 113.391 1924.24 135.169C1749.88 168.952 1578.07 154.046 1410.4 91.7912C1331.95 62.5158 1253.05 33.7759 1172.54 10.9268C1024.24 -30.7996 881.972 -10.0926 747.064 63.7208C662.54 109.999 587.075 168.684 516.565 233.706C463.012 283.108 411.245 334.474 359.031 385.438C302.22 440.776 247.463 498.389 188.957 551.763C-19.8539 742.054 -262.358 866.965 -541.545 917.171C-592.664 926.38 -644.214 933.008 -696 937.03V953.631C-676.721 952.024 -657.383 950.12 -637.985 947.919C-331.485 912.306 -62.2943 788.511 175.345 594.963Z" fill="#FFD200"/>
<path d="M180.79 523.251C252.193 451.446 321.901 378.257 392.68 306.006C463.458 233.754 535.174 164.895 615.815 105.183C690.298 49.8457 769.556 4.59379 859.658 -19.2817H761.121C691.745 9.03919 627.479 48.5369 570.876 97.6414C496.259 161.548 424.9 229.559 355.371 299.044C273.48 380.756 196.766 467.69 114.831 549.358C-39.9807 703.723 -224.826 808.463 -435.02 867.594C-520.23 891.201 -607.721 905.623 -696 910.614V923.333C-444.6 906.97 -213.327 825.51 -2.18152 678.955C63.4171 632.726 124.661 580.608 180.79 523.251V523.251Z" fill="#FFD200"/>
<path d="M716.14 362.053C783.177 310.008 856.2 266.17 933.653 231.474C1071.24 170.603 1212.3 160.071 1354.62 209.161C1428.26 234.687 1499.3 268.872 1571.06 300.289C1623.63 323.317 1674.55 350.138 1727.57 371.96C1826.33 412.66 1927.59 415.74 2030.19 386.375C2109.05 363.212 2183.88 328.035 2252.03 282.081C2285.32 260.006 2318.31 237.469 2351.01 214.471V169.844C2334.35 180.614 2317.62 191.235 2300.81 201.708C2230.34 245.576 2158 285.919 2080.48 316.266C1934.24 373.433 1789.29 374.861 1645.41 307.787C1580.21 277.351 1514.92 247.094 1449.05 217.729C1385.68 189.435 1320.26 166.988 1251.67 154.894C1142.82 135.704 1037.46 148.958 935.572 190.596C852.122 225.256 773.863 271.285 703.02 327.378C622.691 389.856 544.147 455.369 465.202 519.989C266.777 682.083 51.7386 822.699 -176.314 939.484C-228.796 966.498 -282.11 990.865 -336.258 1012.58H-249.726C9.11182 889.145 244.788 728.978 471.851 555.69C554.411 492.498 633.892 425.379 716.14 362.053Z" fill="#FFD200"/>
<path d="M438.915 501.781C522.993 430.377 607.16 358.974 693.29 290.337C757.498 239.04 828.26 196.538 903.707 163.953C1023.26 112.319 1146.75 99.556 1272.55 133.473C1334.76 150.252 1395.28 173.905 1455.52 197.557C1518.22 222.191 1578.87 252.136 1641.53 276.904C1737.92 315.105 1837.62 323.049 1939.73 304.171C2029.38 287.615 2113.24 254.814 2193.52 213.043C2246.45 185.285 2298.48 155.786 2350.92 126.957V98.2171C2318.43 114.164 2285.97 130.14 2253.55 146.147C2176.61 183.946 2099 219.871 2017.02 245.041C1905.45 279.225 1791.52 292.033 1677.5 262.177C1614.39 245.665 1553.97 218.844 1492.65 195.861C1425.31 170.647 1359.4 141.059 1290.98 119.37C1137.87 70.8161 988.231 84.2489 845.915 158.865C792.293 186.17 741.073 217.953 692.799 253.877C614.032 314.123 537.764 377.985 463.505 443.765C349.393 544.846 232.158 641.062 102.426 721.971C-55.0629 820.151 -217.684 906.727 -394.72 964.832C-452.837 983.8 -511.898 999.739 -571.667 1012.58H-442.248C-400.18 998.987 -358.453 983.724 -317.069 966.796C-39.9789 853.086 210.558 695.284 438.915 501.781Z" fill="#FFD200"/>
<path d="M269.827 576.353C357.207 506.6 437.536 427.566 521.122 352.994C599.488 283.197 680.575 217.104 770.499 162.257C939.993 58.9007 1118.23 38.0151 1305.36 104.956C1376.76 130.349 1446.82 158.508 1516.67 187.248C1671.88 251.244 1829.55 257.09 1990.56 212.061C2083.92 185.999 2172.77 148.467 2261.27 109.642C2291.17 96.5213 2320.98 83.2671 2351.01 70.4145V51.4033L2344.05 53.9917C2250.87 88.2207 2158.27 124.235 2064.51 156.634C1981.83 185.692 1895.54 203.217 1808.08 208.714C1687.59 216.033 1572.81 191.354 1461.24 146.638C1391.93 118.835 1321.96 92.1479 1250.78 69.7897C1085.3 17.8437 926.248 36.8995 776.524 123.922C726.473 152.245 678.777 184.54 633.895 220.496C555.798 284.669 479.931 351.461 406.297 420.872C280.76 539.401 151.431 652.04 1.43887 739.867C-183.675 848.311 -378.918 927.301 -591.567 961.44C-626.287 966.974 -661.051 971.392 -695.905 974.829V1001.6C-658.686 996.785 -621.497 990.969 -584.337 984.156C-263.111 924.891 16.7906 777.755 269.827 576.353Z" fill="#FFD200"/>
<path d="M1219.36 608.127C1421.87 524.228 1618.01 543.195 1809.64 642.535L1811.34 642.089C1806.47 637.046 1802.41 630.218 1796.52 627.272C1763.9 611.073 1731.23 594.873 1697.8 580.414C1523 504.548 1347.84 504.548 1172.23 578.495C1094.35 611.974 1019.52 652.124 948.558 698.497C805.096 790.727 665.399 888.237 529.464 991.028L500.813 1012.58H584.043C714.533 912.737 849.158 818.842 987.919 730.897C1061.91 684.038 1138.18 641.732 1219.36 608.127Z" fill="#FFD200"/>
<path d="M1322.44 667.259C1476.1 605.941 1631.85 596.078 1790.32 647.132C1799.85 649.735 1809.56 651.659 1819.37 652.889H1821.6C1818.16 649.408 1814.77 645.927 1811.34 642.491L1809.64 642.937C1797.41 639.635 1784.78 637.359 1773.05 632.896C1610.9 571.31 1448.93 571.638 1287.14 633.878C1214.04 662.254 1143.71 697.3 1077.04 738.573C938.309 823.275 803.981 914.612 674.057 1012.58H760.812C870.416 931.362 982.386 853.399 1099.13 782.218C1170.89 738.662 1244.3 698.23 1322.44 667.259Z" fill="#FFD200"/>
<path d="M1633.23 814.528C1713.55 772.311 1797.32 739.777 1886.4 721.882C1919.73 715.188 1953.6 710.993 1989.48 705.325L1952.85 696.846L1952.35 696.534C1930.31 699.256 1908.26 702.425 1886.13 704.522C1793.53 713.447 1705.83 739.822 1621.04 777.086C1526.43 818.678 1438.65 872.409 1351.63 927.613C1307.95 955.282 1264.81 983.546 1222.21 1012.4H1310.12C1368.26 973.728 1427 935.691 1486.36 898.293C1533.89 868.438 1583.33 840.858 1633.23 814.528Z" fill="#FFD200"/>
<path d="M1427.59 722.239C1539.56 673.373 1657.24 651.55 1779.78 664.849C1815.49 668.731 1850.61 674.89 1886 680.111H1887.25C1868.19 664.313 1845.03 658.155 1821.64 652.71L1822.31 653.38L1819.41 652.889C1808.93 653.692 1798.17 656.057 1788.17 654.094C1685.1 632.863 1578.5 635.919 1476.81 663.019C1387.2 686.85 1303.43 724.649 1223.55 770.927C1095.93 844.896 972.362 925.638 853.369 1012.81H941.463C1037.41 944.17 1135.86 878.925 1237.74 819.125C1299.03 783.058 1362.42 750.705 1427.59 722.239V722.239Z" fill="#FFD200"/>
<path d="M69.7574 553.82C107.914 516.021 144.151 476.258 181.058 437.21C271.74 341.172 360.86 243.662 453.283 149.454C515.904 85.5074 587.364 30.864 665.485 -12.8108C669.457 -14.9975 673.474 -17.2735 677.49 -19.2817H608.898C594.677 -10.3563 580.545 -0.880467 566.502 9.14577C548.651 21.9984 531.202 35.0295 514.155 48.6854C422.089 122.811 342.385 208.942 263.484 296.188C185.253 382.675 109.565 471.751 27.4509 554.401C-174.308 757.633 -416.545 868.085 -696 889.104V901.421C-668.272 899.309 -640.588 896.334 -612.949 892.496C-347.908 855.902 -120.31 742.102 69.7574 553.82Z" fill="#FFD200"/>
<path d="M1812.72 85.9894C1948.34 74.1632 2083.2 53.3669 2218.38 36.5871C2237.43 29.3575 2231.76 29.3575 2217.88 30.0269C2208.49 29.4687 2199.07 29.4687 2189.68 30.0269C2085.83 42.6564 1982.21 56.8032 1878.23 68.1385C1682.11 90.2726 1483.53 67.9417 1297.23 2.80436C1287.91 0.194472 1278.43 -1.77374 1268.84 -3.08643C1273.31 -0.0855294 1278.01 2.55577 1282.9 4.81258C1453.64 70.0575 1630.32 101.877 1812.72 85.9894Z" fill="#FFD200"/>
</svg>
